<svg width="470" height="420" viewBox="0 0 470 420" fill="none" xmlns="http://www.w3.org/2000/svg">
<path d="M354.542 302.929C357.116 304.999 358.826 307.186 360.189 309.556C363.448 315.236 367.028 320.688 370.971 325.927C374.21 330.227 378.739 331.543 383.81 331.621C393.761 331.766 403.038 324.843 404.743 315.753C405.706 310.63 404.338 305.652 402.554 300.863C399.325 292.194 393.707 285.006 387.855 277.957C381.601 270.43 375.373 262.888 368.089 256.285C367.458 255.714 366.965 254.993 366.193 254.089C371.357 253.987 376.218 254.277 381.03 253.358C388.455 251.941 394.518 248.574 397.01 241.172C399.623 233.423 397.904 226.191 392.652 219.887C389.496 216.099 385.353 214.367 380.385 213.782C360.34 211.407 340.594 213.7 320.906 217.115C319.685 217.328 318.698 217.217 317.667 216.612C305.337 209.414 292.508 203.057 280.671 195.037C276.45 192.178 272.38 189.106 268.287 186.073C267.3 185.342 266.709 184.312 266.704 182.976C266.66 168.807 266.552 154.638 266.542 140.464C266.533 127.968 266.67 115.478 266.655 102.982C266.65 100.239 267.524 98.0094 269.337 95.9631C276.294 88.1262 285.048 86.5104 294.872 88.6438C302.567 90.3176 309.284 94.0764 315.601 98.5754C327.946 107.37 340.32 116.126 352.534 125.095C375.089 141.659 395.808 160.201 413.683 181.724C427.87 198.8 439.619 217.405 448.496 237.709C456.396 255.782 460.997 274.779 464.114 294.187C466.645 309.958 468.917 325.748 469.4 341.726C469.811 355.223 469.156 368.623 465.272 381.718C458.35 405.06 438.256 417.507 416.932 419.069C397.298 420.506 378.177 417.396 359.373 411.91C346.354 408.112 333.926 402.965 322.382 395.897C302.923 383.992 288.541 368.149 281.819 345.896C276.035 326.749 271.951 307.355 270.329 287.454C269.347 275.403 268.912 263.324 268.687 251.235C268.604 246.726 268.462 242.213 268.291 237.704C268.228 235.987 268.58 235.483 270.275 236.519C279.137 241.942 288.096 247.219 297.432 251.776C300.96 253.499 301.932 255.898 302.498 259.391C306.206 282.147 310.838 304.695 319.099 326.348C322.841 336.153 327.345 345.611 332.724 354.647C333.979 356.752 335.968 358.043 338.088 359.059C349.417 364.492 365.26 356.611 367.629 344.406C368.035 342.331 368.054 340.241 367.424 338.185C364.913 330.01 361.85 322.047 358.337 314.239C356.96 311.182 355.851 308.004 354.659 304.864C354.498 304.448 354.59 303.94 354.542 302.929Z" fill="#2C98F0"/>
<path d="M117.733 299.69C116.487 305.863 114.069 311.121 112.066 316.505C109.453 323.52 107.015 330.588 104.67 337.699C102.129 345.405 104.474 351.408 110.478 356.125C116.697 361.006 123.83 362.661 131.593 360.145C135.276 358.95 138.159 356.667 140.083 353.276C147.294 340.577 152.605 327.095 156.821 313.177C161.144 298.887 164.534 284.365 166.967 269.653C167.661 265.459 169.195 261.439 169.298 257.105C169.371 254.106 171.149 252.253 174.149 250.864C181.804 247.314 189.034 242.921 196.265 238.577C197.921 237.585 200.021 235.505 201.267 236.197C202.708 236.995 201.585 239.699 201.555 241.576C201.37 253.66 201.008 265.74 200.383 277.814C199.064 303.299 194.643 328.212 185.957 352.274C180.632 367.024 170.964 378.678 158.584 388.266C143.352 400.07 126.048 407.582 107.572 412.734C90.219 417.572 72.5635 420.204 54.5172 419.139C38.381 418.186 24.6581 412.057 14.0717 399.576C7.84288 392.233 4.95566 383.525 2.99176 374.431C0.197359 361.475 0.124079 348.341 0.98878 335.203C2.4446 313.206 5.68845 291.442 10.8473 270.016C17.4914 242.399 29.8903 217.398 46.6762 194.405C65.7827 168.229 89.2615 146.479 115.027 126.955C126.532 118.242 138.584 110.284 150.216 101.751C156.185 97.3729 162.209 93.1546 169.205 90.5036C176.215 87.8429 183.328 86.7061 190.661 89.1587C194.12 90.3149 197.051 92.3128 199.631 94.8284C202.239 97.3778 203.446 100.343 203.466 104.117C203.602 130.23 203.534 156.343 203.089 182.451C203.055 184.411 202.156 185.538 200.774 186.66C191.741 193.994 181.765 199.891 171.652 205.599C165.433 209.106 159.253 212.677 153.088 216.276C151.051 217.466 148.877 217.33 146.688 217.238C141.202 217.016 136.019 214.911 130.601 214.481C116.414 213.354 102.193 212.052 88.1086 215.54C78.0595 218.027 73.3549 223.489 73.2475 233.58C73.1693 240.662 75.6413 246.839 81.616 251.251C84.6107 253.462 88.0744 254.241 91.6993 254.42C94.7868 254.57 97.8792 254.575 100.972 254.667C101.514 254.681 102.252 254.425 102.545 254.976C102.926 255.702 102.149 256.108 101.724 256.519C96.653 261.405 91.6651 266.369 86.985 271.632C78.5383 281.128 71.4057 291.432 66.7549 303.328C64.4099 309.322 63.6429 315.073 67.1555 320.941C72.6905 330.191 84.5863 334.501 93.3945 330.196C99.0517 327.429 102.51 322.577 105.491 317.313C108.29 312.364 110.557 307.101 114.323 302.723C115.217 301.673 116.136 300.706 117.733 299.69Z" fill="#2C98F0"/>
<path opacity="0.75" d="M140.104 258.884C123.944 272.971 108.677 287.866 96.6152 305.688C94.9346 308.17 93.5521 310.806 92.4627 313.592C90.8505 317.738 86.8446 319.741 82.8875 318.406C78.8717 317.046 76.8492 312.794 78.3881 308.566C81.2558 300.671 85.8431 293.744 91.0704 287.228C103.469 271.772 118.023 258.401 132.81 245.262C133.382 244.754 134.183 244.425 134.423 243.394C128.511 242.466 122.615 242.03 116.713 241.774C108.985 241.435 101.251 241.58 93.5179 241.745C89.8344 241.822 86.8495 239.379 86.1264 235.954C85.4229 232.626 87.1181 229.196 90.2252 227.687C91.808 226.918 93.5472 226.898 95.2375 226.826C113.748 226.037 132.166 226.395 150.188 231.397C150.999 231.625 151.736 231.591 152.528 231.17C173.769 219.927 194.751 208.288 213.438 193.059C217.727 189.562 221.474 185.542 224.395 180.811C225.275 179.388 225.69 177.961 225.69 176.263C225.656 120.805 225.675 65.3475 225.631 9.8896C225.627 6.07759 226.584 2.87512 230.414 1.53027C233.643 0.39828 237.127 0.267666 240.317 1.81085C243.204 3.20891 244.391 5.73896 244.386 8.94143C244.352 28.2869 244.367 47.6323 244.362 66.9778C244.362 103.173 244.376 139.362 244.318 175.557C244.313 177.947 244.992 179.911 246.277 181.86C249.716 187.09 254.284 191.255 259.13 195.091C275.701 208.22 294.099 218.51 312.58 228.688C316.337 230.759 319.62 231.286 323.924 230.13C338.883 226.124 354.257 225.515 369.675 225.916C372.279 225.984 374.888 226.066 377.482 226.274C382.362 226.671 385.518 229.922 385.24 234.145C384.956 238.489 381.58 241.29 376.69 241.13C363.739 240.71 350.818 240.884 337.955 242.616C337.075 242.737 336.196 242.886 334.789 243.104C335.952 244.139 336.811 244.904 337.671 245.668C352.098 258.478 366.255 271.554 378.429 286.56C383.691 293.047 388.332 299.931 391.336 307.778C392.856 311.744 392.172 314.928 389.348 317.143C385.572 320.104 379.807 319.006 378.014 314.594C374.184 305.146 367.755 297.469 361.258 289.859C352.156 279.202 342.171 269.387 331.467 260.292C331.296 260.229 331.125 260.161 330.949 260.094C331.008 260.273 331.066 260.452 331.13 260.631C332.752 271.878 335.4 282.908 338.365 293.865C342.386 308.716 347.247 323.277 353.9 337.209C355.742 341.06 354.272 345.254 350.603 347.097C346.817 349.003 342.513 347.663 340.5 343.682C335.654 334.094 331.999 324.027 328.658 313.849C321.55 292.22 316.708 270.088 313.694 247.56C313.465 245.837 312.429 245.305 311.212 244.676C293.469 235.514 276.155 225.641 259.79 214.205C251.211 208.211 242.901 201.874 235.979 193.954C235.422 193.316 235.114 192.697 234.186 193.727C222.329 206.856 207.644 216.401 192.734 225.636C181.986 232.292 170.926 238.431 159.67 244.217C158.468 244.836 157.96 245.557 157.774 246.931C156.651 255.3 155.356 263.649 153.676 271.931C148.785 295.998 142.171 319.533 131.96 341.984C130.622 344.925 129.142 347.722 125.614 348.433C122.693 349.023 120.099 348.234 118.203 345.854C116.274 343.431 115.912 340.726 117.275 337.93C123.182 325.793 127.603 313.104 131.277 300.163C135.097 286.705 138.433 273.121 140.515 259.266C140.539 259.054 140.568 258.841 140.593 258.628C140.427 258.715 140.265 258.802 140.104 258.884Z" fill="#494949"/>
<path d="M140.106 258.881C140.267 258.799 140.428 258.717 140.594 258.63C140.57 258.843 140.541 259.055 140.516 259.268C140.375 259.138 140.243 259.012 140.106 258.881Z" fill="#010101"/>
<path d="M331.137 260.632C331.078 260.453 331.019 260.274 330.956 260.095C331.127 260.163 331.298 260.226 331.474 260.294C331.361 260.405 331.249 260.521 331.137 260.632Z" fill="#010101"/>
</svg>
