<svg width="344" height="252" viewBox="0 0 344 252" fill="none" xmlns="http://www.w3.org/2000/svg">
<g clip-path="url(#clip0)">
<path d="M149.377 194.355C146.355 194.281 143.518 195.313 140.57 195.756C133.458 196.788 126.346 197.636 119.16 196.272C115.438 195.571 111.974 194.207 108.916 191.922C108.142 191.369 107.552 190.816 107.626 189.673C107.994 181.636 107.589 173.6 107.958 165.563C108.252 159.222 110.39 153.324 111.827 147.241C112.011 146.467 111.864 145.471 112.785 144.955C119.786 146.061 126.751 147.646 133.789 148.605C135.374 148.826 135.853 149.563 135.779 151.148C135.742 151.812 135.448 152.476 135.521 153.065C136.443 148.973 136.443 149.047 140.865 149.563C146.724 150.227 152.546 150.927 158.442 151.185C160.874 151.296 163.343 151.517 165.775 151.517C170.16 151.517 170.492 151.849 170.529 156.125C170.934 152.218 170.897 152.07 174.73 151.701C178.12 151.37 181.584 151.407 184.937 150.706C186.411 150.411 186.706 151.554 186.669 152.66C186.558 155.056 186.19 157.416 186.153 159.812C185.232 166.116 184.384 172.457 182.873 178.65C182.026 182.116 181.142 185.544 179.999 188.936C179.704 189.747 179.41 190.447 178.378 190.3C172.924 189.452 167.618 190.41 162.311 191.443C158.589 192.143 154.868 192.917 151.146 193.618C150.593 192.843 151.035 192.069 151.219 191.332C153.025 184.991 153.688 178.466 154.315 171.941C154.352 171.535 154.425 171.093 154.278 170.761C153.615 178.134 153.025 185.618 150.519 192.733C150.261 193.286 150.335 194.171 149.377 194.355Z" fill="#5E9ED3"/>
<path d="M106.098 109.265L106.101 109.269L106.101 109.269C107.631 111.808 108.821 114.452 109.93 117.114C109.93 117.114 109.93 117.114 109.93 117.114M106.098 109.265L113.927 134.633C113.632 128.55 111.79 122.873 109.468 117.306L109.93 117.114M106.098 109.265C105.689 108.599 105.582 108.099 105.669 107.697C105.754 107.296 106.058 106.867 106.758 106.406L106.763 106.403C110.201 104.084 111.693 100.678 111.92 96.6159C112.295 90.0503 110.27 84.1047 107.797 78.306C107.723 78.0997 107.592 77.9496 107.5 77.8525C107.448 77.7975 107.411 77.7607 107.381 77.7311C107.348 77.6979 107.323 77.6736 107.297 77.6427C107.018 77.1842 106.95 76.8291 106.999 76.5445C107.049 76.2562 107.237 75.9418 107.671 75.603C108.16 75.2376 108.873 75.0202 109.599 74.9909C110.333 74.9614 110.987 75.1272 111.379 75.4212L111.379 75.4213L111.385 75.4256C111.693 75.6499 111.902 75.9614 112.158 76.3634C114.291 81.215 117.464 85.3154 121.369 88.8128L121.371 88.8148C123.332 90.5503 125.581 91.8872 128.439 91.9264L128.44 91.9264C129.97 91.9455 131.238 91.6793 132.249 90.9807C133.264 90.2793 133.951 89.1903 134.414 87.7049C135.661 83.734 135.619 79.66 134.681 75.6449L134.681 75.6449L134.679 75.6374C134.658 75.5506 134.64 75.4859 134.624 75.4278C134.603 75.3547 134.586 75.2921 134.568 75.2094C134.552 75.1373 134.543 75.0783 134.541 75.0282C135.022 74.3063 135.863 73.9021 136.772 73.8713C137.721 73.8391 138.681 74.2172 139.288 74.9932C139.579 75.383 139.78 75.8131 139.999 76.3241L139.999 76.3242L140.002 76.3305C141.15 78.9108 142.374 81.4565 143.594 83.993C143.65 84.1099 143.706 84.2268 143.762 84.3437C145.038 86.997 146.305 89.6422 147.479 92.3225C147.57 92.5425 147.679 92.7691 147.78 92.9796C147.827 93.0784 147.873 93.1736 147.914 93.263C148.052 93.5619 148.163 93.8366 148.225 94.1154L148.235 94.1578L148.251 94.1979C148.519 94.8466 148.797 95.4817 149.073 96.1109C149.996 98.2187 150.891 100.261 151.279 102.532C151.57 104.278 151.709 105.989 151.461 107.686L151.461 107.686L151.46 107.692C151.198 109.681 151.161 111.663 151.175 113.623C151.179 114.212 151.188 114.798 151.197 115.381C151.217 116.747 151.237 118.1 151.199 119.46C151.158 120.186 151.367 120.861 151.729 121.441C152.12 122.442 152.322 123.488 152.479 124.576C152.528 124.911 152.572 125.255 152.618 125.602C152.718 126.377 152.822 127.173 152.977 127.948L152.977 127.95C153.295 129.502 153.724 131.012 154.157 132.505C154.192 132.627 154.228 132.749 154.263 132.871C154.661 134.241 155.055 135.597 155.372 136.983C155.395 137.105 155.428 137.223 155.455 137.32L155.456 137.327C155.485 137.43 155.508 137.512 155.524 137.593C155.544 137.694 155.549 137.772 155.54 137.839C150.578 141.715 144.829 143.506 138.585 143.903L138.584 143.903C131.202 144.378 123.929 143.501 116.799 141.343L116.796 141.342C116.137 141.147 115.669 140.999 115.326 140.846C114.988 140.695 114.825 140.56 114.73 140.423C114.636 140.285 114.568 140.083 114.546 139.709C114.525 139.33 114.554 138.834 114.61 138.138L114.61 138.138L114.61 138.13C114.684 136.983 114.688 135.764 114.424 134.566M106.098 109.265L114.424 134.566M109.93 117.114C112.255 122.689 114.119 128.415 114.424 134.566M109.93 117.114L114.424 134.566" fill="#FDD87F" stroke="black"/>
<path d="M113.927 134.633C115.364 135.739 114.627 137.25 114.443 138.504C114.222 140.126 114.664 140.752 116.249 141.195C125.756 143.775 135.3 145.176 145.065 142.817C148.419 142.006 151.551 140.642 154.388 138.651C154.831 138.319 155.236 137.951 155.826 137.914C156.673 138.098 156.71 138.872 156.894 139.462C157.41 141.084 157.926 142.743 158.552 144.365C158.921 145.361 159.511 145.729 160.616 145.729C165.775 145.582 170.934 145.729 176.093 145.656C177.751 145.656 179.373 145.951 181.031 146.098C182.652 146.245 183.021 145.25 183.426 144.144C183.868 143.001 183.868 141.969 182.689 141.232C180.368 139.757 177.972 138.356 175.577 136.955C171.266 134.448 167.065 131.831 163.011 128.956C159.953 126.78 157.779 124.016 156.305 120.624C155.568 118.928 154.831 117.269 154.167 115.536C153.983 114.983 153.836 114.394 154.425 114.062C155.125 113.656 155.568 114.172 155.936 114.689C156.415 115.389 156.784 116.2 157.078 117.011C157.926 119.186 159.031 121.251 160.137 123.315C160.653 124.274 161.39 124.974 162.201 125.638C168.097 130.43 174.766 133.969 181.215 137.877C181.952 138.319 182.689 138.762 183.426 139.204C185.858 140.679 186.374 142.08 185.416 144.771C185.048 145.803 184.716 146.872 184.605 147.978C184.568 148.384 184.384 148.9 184.974 149.047C185.49 149.158 185.748 148.752 185.932 148.347C186.264 147.609 186.264 146.798 186.522 146.024C186.743 145.361 186.816 144.365 187.885 144.697C188.769 144.955 188.769 145.803 188.622 146.577C188.327 147.941 187.996 149.305 188.032 150.78C188.585 150.411 188.696 149.858 188.954 149.379C189.248 148.863 189.617 148.421 190.243 148.642C190.98 148.937 190.944 149.6 190.796 150.19C190.538 151.296 189.838 152.181 189.138 153.029C188.217 154.172 187.295 155.351 187.443 157.305C189.101 155.277 190.833 153.655 192.049 151.591C192.491 150.817 192.675 149.969 192.602 149.121C192.418 146.319 192.344 143.481 191.459 140.752C190.87 138.946 190.133 137.14 188.622 135.886C182.615 130.725 177.014 125.158 171.413 119.518C170.455 118.559 169.534 117.638 168.06 117.453C167.028 117.343 166.659 116.606 167.47 115.758C168.133 115.057 167.949 114.431 167.654 113.73C164.117 105.288 160.763 96.7719 156.563 88.6246C153.541 82.763 148.198 79.6663 142.191 77.565C141.454 77.3069 140.606 77.2332 140.054 76.5696C139.427 74.7632 138.211 73.9153 136.258 73.9522C135.226 73.9522 134.6 74.2471 134.231 75.1687C131.505 75.648 128.925 74.837 126.346 74.2102C125.682 74.0628 125.535 73.3255 125.387 72.7356C125.13 71.8508 125.166 70.9292 125.093 70.0076C125.056 69.2703 124.761 68.791 123.95 68.9753C122.366 69.344 120.818 69.4177 119.307 68.6435C118.791 68.3855 118.497 68.6804 118.46 69.1965C118.386 69.8601 118.423 70.5606 118.423 71.2241C118.275 74.9844 116.249 76.7908 112.343 76.6065C111.569 75.5743 110.758 74.7632 109.247 75.0581C107.257 75.4268 106.705 75.9798 106.852 78.0443C101.288 79.0396 96.1654 81.2147 91.3381 84.0533C90.859 84.3114 90.4905 84.68 89.8272 84.5326C82.0519 83.0211 74.5714 84.5694 67.1645 86.8182C65.9853 87.1869 64.843 87.6661 63.7006 87.9979C62.5583 88.3297 61.6739 88.8458 61.7107 90.2099C61.7107 90.6523 61.5633 91.2052 61.0474 91.1315C60.3841 91.0578 60.4947 90.4311 60.5684 89.9518C61.895 81.7677 62.4846 73.4729 62.4477 65.1782C62.4109 60.7912 62.5214 56.4411 64.0691 52.3121C64.4008 51.4274 62.5214 51.1324 63.7006 50.432C64.3639 50.0265 65.1746 51.0218 65.9853 50.5794C66.3538 50.3951 66.8697 50.1002 67.0908 50.6532C67.3488 51.243 66.8329 51.6485 66.3907 51.7223C65.2483 51.8329 65.1009 52.6808 64.8798 53.4918C64.1797 56.183 63.5901 58.8742 63.6269 61.6391C63.7743 69.6758 63.369 77.7125 62.374 85.7123C62.3372 86.1178 62.3003 86.5602 62.2635 87.15C64.7324 86.3759 67.0908 85.5648 69.4492 84.9012C75.9348 83.0948 82.5309 82.1363 89.2745 83.2054C90.0115 83.316 90.5642 83.0948 91.1907 82.763C93.7702 81.2147 96.4971 79.8875 99.3345 78.929C100.514 78.5235 100.735 77.8968 100.735 76.7908C100.845 63.7773 101.251 50.7638 103.609 37.8977C104.715 31.9624 106.189 26.1745 109.542 21.0133C113.78 14.525 120.45 11.3914 127.525 14.2301C127.783 14.3407 128.151 14.4513 128.409 14.3775C134.195 12.9766 138.138 16.0733 141.491 20.0179C146.797 26.2851 148.308 33.8425 147.571 41.7686C146.576 52.5702 145.139 63.3718 144.291 74.2102C144.181 75.8323 144.402 76.6434 146.06 77.3438C151.993 79.8507 156.415 83.9427 159.142 89.9149C162.901 98.0991 166.475 106.394 169.828 114.725C170.16 115.536 170.455 116.274 171.118 116.9C177.383 122.799 183.205 129.103 189.801 134.67C192.454 136.918 193.228 140.089 193.781 143.333C193.892 144.07 193.855 144.808 194.002 145.545C195.55 151.886 191.496 155.609 187.59 159.406C187.185 159.812 186.632 159.886 186.079 159.923C185.416 159.554 185.527 158.964 185.6 158.3C185.821 156.236 185.969 154.135 186.116 152.07C186.19 151.259 185.969 150.927 185.084 151.185C180.957 152.328 176.683 152.255 172.482 152.402C171.192 152.439 170.86 152.881 171.081 154.024C171.302 155.056 171.118 156.089 170.86 157.121C170.75 157.526 170.565 158.042 170.05 157.932C169.497 157.821 169.644 157.342 169.681 156.9C170.381 151.296 169.755 152.402 165.849 152.291C156.563 151.996 147.35 151.149 138.174 149.895C136.811 149.711 136.369 150.116 136.332 151.333C136.295 152.255 135.927 153.139 136.148 154.061C136.258 154.54 136.184 154.983 135.632 155.019C135.079 155.056 135.005 154.54 134.932 154.098C134.821 153.176 134.858 152.255 135.116 151.37C135.521 150.006 135.079 149.416 133.605 149.232C127.083 148.494 120.671 146.946 114.222 145.914C113.595 145.803 113.006 145.729 112.674 145.103C113.448 143.775 113.559 142.485 113.301 140.9C113.043 138.762 113.116 136.624 113.927 134.633Z" fill="#1C2028"/>
<path d="M245.444 107.979C245.776 112.698 245.408 118.154 245.039 123.61C244.597 129.693 243.897 135.739 243.012 141.785C241.686 151.112 239.696 160.291 236.969 169.286C234.611 177.028 231.663 184.549 227.756 191.664C227.683 191.774 227.609 191.848 227.535 191.959C227.204 192.401 226.983 193.36 226.282 192.954C225.545 192.548 226.282 191.848 226.54 191.369C231.81 181.526 235.532 171.13 238.185 160.328C240.138 152.402 241.612 144.365 242.533 136.218C243.27 129.951 243.712 123.721 244.081 117.417C244.413 111.407 244.449 105.398 244.265 99.3893C244.044 92.2743 243.528 85.1592 242.607 78.0442C241.723 71.2241 240.728 64.404 239.143 57.6945C235.679 43.022 231.147 28.7919 222.376 16.2576C218.507 10.7278 213.975 5.86155 207.673 3.02291C201.151 0.0736684 194.702 0.55292 188.511 4.2026C181.289 8.479 176.424 14.9673 172.371 22.1192C164.964 35.1696 160.874 49.326 158.073 63.9247C157.52 66.874 156.968 69.7863 156.599 72.7724C156.525 73.3623 156.415 74.2471 155.641 74.0996C154.757 73.9153 155.309 73.1411 155.383 72.5881C156.268 65.2887 157.815 58.1368 159.658 51.0587C161.353 44.4966 163.527 38.0451 166.217 31.778C168.797 25.8058 171.745 20.0179 175.651 14.783C179.851 9.10572 184.642 4.09201 191.422 1.54829C199.087 -1.32722 206.199 -0.0737934 212.795 4.60813C219.428 9.32691 223.998 15.8152 227.83 22.8566C234.832 35.7226 238.848 49.6209 241.612 63.8879C242.902 70.5236 243.749 77.2332 244.339 83.9796C245.113 91.7213 245.592 99.4631 245.444 107.979Z" fill="#E9E9E9"/>
<path d="M237.706 108.79C238.075 113.325 237.596 118.596 237.264 123.831C236.711 132.347 235.79 140.826 234.205 149.232C232.916 156.199 231.331 163.093 229.194 169.876C226.172 179.351 222.34 188.493 216.223 196.456C215.67 197.194 214.97 197.82 214.306 198.447C214.049 198.705 213.754 199.295 213.275 198.742C212.869 198.3 213.348 197.968 213.606 197.673C215.744 195.277 217.512 192.659 219.171 189.931C223.372 183 226.098 175.517 228.494 167.849C230.705 160.77 232.252 153.545 233.468 146.282C234.205 142.043 234.685 137.73 235.164 133.416C235.901 126.67 235.937 119.887 236.343 113.103C236.748 105.988 236.159 98.947 235.901 91.8688C235.643 84.7169 234.721 77.6387 233.616 70.5974C232.658 64.5146 231.294 58.5055 229.71 52.5333C227.83 45.4183 225.435 38.5244 222.229 31.8886C218.913 25.0317 214.859 18.7277 208.705 14.0826C203.436 10.1011 196.139 9.47442 190.096 13.3084C185.232 16.4051 181.694 20.7553 178.783 25.6215C171.966 36.9761 168.207 49.4366 165.48 62.3027C164.043 69.1228 163.196 76.0167 162.201 82.8736C162.127 83.3898 162.311 84.3114 161.648 84.2377C160.727 84.1639 161.021 83.1686 161.095 82.5787C161.574 78.6341 161.98 74.6895 162.68 70.8186C163.969 63.3718 165.443 55.9618 167.654 48.6993C170.602 38.93 174.251 29.4555 180.294 21.1608C183.721 16.5157 187.738 12.3499 193.486 10.4329C199.898 8.29472 205.536 9.99054 210.548 14.1195C217.77 20.0548 221.971 28.0178 225.546 36.46C230.336 47.7777 233.063 59.6852 235.016 71.7771C236.048 78.0074 236.711 84.3483 237.043 90.6891C237.338 96.4402 237.78 102.265 237.706 108.79Z" fill="#E7E7E7"/>
<path d="M69.7069 50.3582C72.139 50.0632 74.5711 49.9158 76.9295 49.4734C78.4404 49.2153 80.0986 45.8237 79.5827 44.3491C79.2511 43.3537 78.8089 42.4321 78.293 41.5104C76.6716 38.4875 76.1188 38.2663 72.7286 39.0404C69.0068 39.8515 65.7271 41.5842 62.558 43.6118C61.8579 44.0542 61.4525 44.7546 61.0472 45.4182C55.925 53.971 53.3824 63.4085 51.3188 73.0304C49.8816 79.7768 49.0709 86.5601 48.9235 93.4908C48.8867 95.4447 49.6606 96.44 51.3925 96.9562C54.5984 97.9515 57.8781 98.357 61.1946 98.5414C67.2748 98.8732 73.3182 98.2464 79.3985 98.099C87.4686 97.9515 95.4651 98.1358 103.314 100.422C104.493 100.753 105.599 101.269 106.741 101.749C107.22 101.97 107.957 102.191 107.552 102.928C107.22 103.518 106.704 103.039 106.262 102.855C105.157 102.302 104.051 101.822 102.614 101.564C103.498 102.633 104.272 103.518 105.009 104.44C105.304 104.772 105.488 105.214 105.009 105.546C104.604 105.804 104.309 105.546 104.088 105.214C104.051 105.177 104.014 105.103 103.977 105.067C101.508 100.974 97.5655 100.053 93.1804 99.7211C86.5105 99.2049 79.8407 99.2418 73.134 99.5736C66.3167 99.9054 59.4995 100.237 52.7928 98.6151C52.24 98.5045 51.7241 98.357 51.2082 98.1727C48.2971 97.1773 47.7075 96.4769 47.8181 93.3433C48.3708 78.1916 51.4662 63.5929 57.4359 49.584C59.9785 43.6486 64.29 40.2939 70.1123 38.6349C77.298 36.5705 77.8508 36.9022 80.7251 43.9804C81.7937 46.561 79.2511 50.4319 76.4136 50.8005C74.4606 51.0586 72.5075 51.2429 70.5545 51.501C69.5227 51.6116 68.6383 51.4273 68.4172 50.2844C68.1961 49.1416 68.9331 48.6255 69.928 48.3306C70.9967 47.9988 72.0285 47.6301 73.0603 47.2983C74.0921 46.9297 74.9028 46.3398 75.4187 45.3813C75.824 44.644 75.9346 44.0173 75.087 43.5012C74.7185 43.28 74.2395 43.0219 74.5711 42.5427C74.9396 41.9897 75.4555 42.2846 75.8609 42.5795C76.819 43.2431 77.298 44.0542 76.819 45.2707C76.1557 46.9297 74.9765 47.925 73.2814 48.5149C72.0653 48.9573 70.7019 49.1047 69.6332 49.9526C69.6332 50.0264 69.6701 50.2107 69.7069 50.3582Z" fill="#1A1C23"/>
<path d="M304.884 81.2515C297.108 81.2884 290.254 80.9935 283.511 79.7769C281.042 79.3345 280.526 78.671 280.857 76.1641C281.3 72.7725 281.852 69.4177 282.405 66.063C283.363 60.1276 284.321 54.1554 285.243 48.22C286.016 43.3538 286.717 38.4507 287.49 33.5844C287.712 32.331 288.375 31.2619 289.849 31.1513C294.787 30.7827 299.725 30.3403 304.662 30.4509C309.048 30.5246 313.433 30.8933 317.818 31.1513C319.366 31.2619 319.992 32.4047 320.213 33.7319C321.577 42.211 322.903 50.69 324.23 59.1691C325.114 64.7727 325.999 70.3393 326.846 75.9429C327.251 78.7078 326.22 79.7401 322.756 80.1087C316.491 80.7723 310.264 81.5096 304.884 81.2515Z" fill="#E9E9E9"/>
<path d="M300.425 151.259C290.18 151.259 279.936 151.222 269.655 151.296C267.886 151.296 267.481 150.743 267.555 149.121C267.665 145.692 267.628 142.227 267.555 138.799C267.518 137.582 267.96 137.213 269.139 137.213C288.854 137.25 308.532 137.213 328.246 137.25C328.762 137.25 329.72 136.918 329.647 137.84C329.573 138.651 328.652 138.319 328.099 138.319C309.121 138.356 290.18 138.319 271.203 138.319C268.66 138.319 268.66 138.319 268.66 140.937C268.66 143.333 268.771 145.729 268.623 148.126C268.513 149.785 269.102 150.19 270.687 150.153C288.559 150.079 306.394 150.116 324.267 150.116C326.588 150.116 328.947 150.079 331.268 150.153C331.858 150.153 332.926 149.748 332.963 150.669C333 151.628 331.895 151.222 331.342 151.222C321.024 151.296 310.706 151.259 300.425 151.259Z" fill="#EAEAEA"/>
<path d="M306.431 160.476C299.356 160.476 292.318 160.512 285.242 160.439C283.732 160.439 283.4 160.918 283.4 162.319C283.474 169.434 283.474 176.586 283.4 183.701C283.4 185.175 283.842 185.581 285.279 185.544C298.25 185.507 311.185 185.507 324.156 185.544C324.819 185.544 325.998 185.139 325.998 186.06C325.998 187.019 324.819 186.613 324.193 186.613C310.927 186.65 297.661 186.613 284.395 186.687C282.81 186.687 282.294 186.318 282.294 184.659C282.368 177.028 282.331 169.434 282.331 161.803C282.331 159.406 283.105 158.743 285.537 159.185C286.385 159.333 287.232 159.37 288.08 159.37C301.235 159.37 314.354 159.37 327.509 159.37C327.988 159.37 328.504 159.37 328.983 159.37C329.278 159.37 329.647 159.37 329.683 159.775C329.72 160.144 329.426 160.328 329.094 160.365C328.541 160.439 327.988 160.439 327.436 160.439C320.397 160.476 313.433 160.476 306.431 160.476Z" fill="#EAEAEA"/>
<path d="M41.3696 42.8008C41.3696 53.1231 41.3696 63.4455 41.3696 73.7678C41.3696 74.0259 41.3696 74.2471 41.3696 74.5051C41.3327 75.1318 41.5907 76.2009 40.78 76.2009C39.8587 76.2009 40.3009 75.1318 40.3009 74.542C40.2641 53.971 40.2641 33.4001 40.3009 12.8291C40.3009 11.0227 39.9693 10.396 38.0162 10.4329C31.1253 10.5803 24.2712 10.5066 17.3802 10.4697C16.7907 10.4697 15.7589 10.8753 15.722 9.91675C15.6483 8.84766 16.6801 9.03198 17.3802 9.03198C24.6765 9.03198 32.0097 9.06885 39.306 8.99512C40.9274 8.99512 41.4064 9.5481 41.4064 11.1333C41.3327 21.6769 41.3696 32.2204 41.3696 42.8008Z" fill="#E8E8E8"/>
<path d="M50.582 22.3036C50.582 28.8657 50.582 35.4278 50.582 41.9898C50.582 42.4322 50.582 42.8377 50.5452 43.2801C50.5083 43.7225 50.4346 44.2017 49.845 44.128C49.366 44.0543 49.4765 43.575 49.4765 43.2432C49.4765 40.9576 49.4765 38.7088 49.4765 36.4231C49.4765 25.3635 49.4397 14.3407 49.5134 3.28103C49.5134 1.69581 49.1449 1.1797 47.4866 1.21656C36.3579 1.29029 25.2661 1.25343 14.1374 1.25343C13.6584 1.25343 13.1425 1.25343 12.6634 1.25343C12.3686 1.21656 12.037 1.14283 12.0001 0.774175C11.9633 0.258057 12.3318 0.184326 12.7371 0.184326C13.1056 0.147461 13.4741 0.184326 13.8426 0.184326C25.4503 0.184326 37.0212 0.221192 48.629 0.147461C50.1398 0.147461 50.6189 0.516116 50.6189 2.06447C50.5083 8.81085 50.582 15.5572 50.582 22.3036Z" fill="#EAEAEA"/>
<path d="M298.066 82.8367C298.914 83.0947 298.914 83.6477 298.803 84.2007C297.661 90.689 295.819 96.9193 292.17 102.523C290.144 105.656 288.006 108.716 287.048 112.403C285.722 117.564 286.09 122.43 289.149 126.965C290.66 129.213 292.023 131.536 292.723 134.153C292.871 134.706 293.129 135.333 292.428 135.554C291.655 135.812 291.765 134.964 291.655 134.596C290.77 131.61 289.038 129.103 287.454 126.485C284.469 121.472 284.616 116.126 286.311 110.707C287.417 107.205 289.701 104.366 291.507 101.269C294.455 96.1451 296.629 90.689 297.366 84.7905C297.514 84.0532 297.698 83.4265 298.066 82.8367Z" fill="#E9E9E9"/>
<path d="M323.161 116.642C323.272 122.393 321.245 126.006 318.923 129.508C318.186 130.651 317.597 131.831 317.118 133.121C316.897 133.674 316.97 134.817 316.049 134.485C314.98 134.117 315.791 133.158 316.012 132.605C316.897 130.393 318.186 128.366 319.476 126.338C323.014 120.734 322.424 114.983 320.029 109.196C318.702 105.951 316.344 103.297 314.686 100.2C312.106 95.3341 310.522 90.173 309.564 84.7906C309.49 84.2745 309.342 83.4635 310.006 83.3529C310.816 83.2423 310.632 84.0902 310.706 84.5694C311.627 90.0992 313.322 95.371 316.123 100.237C317.339 102.339 318.665 104.403 319.955 106.468C322.203 110.043 322.94 113.988 323.161 116.642Z" fill="#E9E9E9"/>
<path d="M41.3697 122.135C41.3697 128.218 41.3329 134.301 41.4066 140.347C41.4066 141.6 41.0749 142.08 39.7483 142.043C35.0315 141.969 30.3147 142.043 25.5979 142.006C25.1189 142.006 24.2345 142.264 24.2345 141.527C24.1976 140.605 25.1189 140.937 25.6348 140.937C29.8725 140.9 34.1103 140.863 38.3112 140.937C39.822 140.974 40.3011 140.531 40.3011 138.983C40.2274 127.518 40.2642 116.053 40.2642 104.551C40.2642 104.182 40.2274 103.813 40.2642 103.445C40.3011 102.928 40.1168 102.117 40.8169 102.117C41.5171 102.154 41.3328 102.965 41.3328 103.481C41.3697 109.749 41.3697 115.942 41.3697 122.135Z" fill="#E8E8E8"/>
<path d="M49.4766 125.011C49.4766 118.817 49.4766 112.624 49.4766 106.431C49.4766 105.988 49.4766 105.583 49.5135 105.14C49.5503 104.772 49.624 104.366 50.103 104.366C50.4347 104.366 50.5821 104.735 50.5821 105.067C50.6189 105.509 50.6189 105.915 50.6189 106.357C50.6189 118.744 50.6189 131.131 50.6189 143.517C50.6189 143.702 50.6189 143.886 50.6189 144.07C50.5821 144.66 50.7663 145.545 49.9556 145.508C49.2186 145.471 49.5503 144.623 49.5503 144.144C49.4398 137.766 49.4766 131.389 49.4766 125.011Z" fill="#E9E9E9"/>
<path d="M149.376 194.355C152.288 186.798 152.988 178.871 153.688 170.908C153.725 170.54 153.725 170.171 153.725 169.802C153.762 169.397 153.872 169.028 154.314 169.028C154.793 169.028 154.867 169.434 154.867 169.839C154.83 171.019 154.757 172.162 154.683 173.342C154.167 180.199 153.061 186.982 151.108 193.581C150.15 195.203 150.15 195.203 149.376 194.355Z" fill="#142235"/>
<path d="M77.3718 92.7166C75.3082 92.7166 73.2078 92.7166 71.181 92.0899C70.7388 91.9424 70.0755 91.9424 70.1861 91.242C70.3335 90.5415 70.9599 90.7996 71.4021 90.9102C75.5293 91.9424 79.6565 91.6106 83.8205 90.9471C83.9311 90.9102 84.0785 90.8733 84.189 90.8733C84.7418 90.9102 85.6262 90.3941 85.7367 91.2789C85.8473 92.1268 84.8892 91.9424 84.3364 92.053C82.0518 92.5323 79.7302 92.7535 77.3718 92.7166Z" fill="#21232A"/>
<path d="M160.69 163.351C160.174 168.401 159.695 173.378 157.558 178.023C157.226 178.761 156.894 180.235 155.936 179.756C154.978 179.277 156.157 178.281 156.452 177.581C158.147 173.784 158.737 169.729 159.216 165.673C159.327 164.899 159.363 164.088 159.474 163.314C159.548 162.835 159.29 161.987 160.027 161.987C161.022 161.987 160.543 162.872 160.69 163.351Z" fill="#142336"/>
<path d="M156.636 154.171C157.631 154.245 158.221 154.798 158.184 155.793C158.184 156.789 157.779 157.637 156.599 157.637C155.42 157.637 155.015 156.752 154.978 155.793C155.015 154.798 155.604 154.245 156.636 154.171Z" fill="#162436"/>
<path d="M112.048 169.545C111.79 170.208 112.564 171.793 111.237 171.756C110.132 171.72 110.906 170.245 110.684 169.434C110.648 169.25 110.684 169.065 110.721 168.881C110.795 168.254 110.648 167.296 111.532 167.333C112.343 167.369 112.011 168.254 112.085 168.844C112.085 169.028 112.048 169.213 112.048 169.545Z" fill="#20354D"/>
<path d="M112.269 157.305C112.564 156.052 112.711 155.204 112.932 154.393C113.043 153.95 113.19 153.323 113.854 153.582C114.369 153.766 114.259 154.245 114.148 154.688C113.964 155.499 113.743 156.346 113.559 157.157C113.448 157.6 113.301 158.042 112.785 157.932C112.232 157.784 112.269 157.305 112.269 157.305Z" fill="#172A40"/>
<path d="M111.274 163.24C111.347 162.835 111.421 161.987 111.605 161.139C111.679 160.734 111.827 160.254 112.416 160.402C112.858 160.512 112.858 160.918 112.821 161.287C112.711 162.134 112.6 162.982 112.453 163.793C112.379 164.273 112.342 164.899 111.679 164.826C111.016 164.752 111.237 164.125 111.274 163.24Z" fill="#17293D"/>
<path d="M111.863 176.659C111.569 177.397 112.416 178.724 111.2 178.761C110.279 178.761 110.647 177.434 110.684 176.733C110.721 175.922 110.095 174.484 111.311 174.484C112.306 174.484 111.495 175.922 111.863 176.659Z" fill="#15273D"/>
<path d="M111.901 183.701C111.679 184.438 112.232 185.765 111.348 185.765C110.169 185.802 110.685 184.438 110.721 183.738C110.758 182.963 110.095 181.526 111.348 181.526C112.343 181.526 111.569 182.963 111.901 183.701Z" fill="#172A3F"/>
<path d="M111.495 189.378C111.237 189.931 111.716 191 110.648 191.258C110.132 191.369 109.911 190.816 110.095 190.41C110.39 189.71 109.874 188.53 111.053 188.346C111.532 188.272 111.606 188.862 111.495 189.378Z" fill="#182C43"/>
<path d="M115.696 149.158C115.328 149.748 115.585 150.854 114.591 151.148C114.222 151.259 113.89 150.817 114.038 150.448C114.333 149.711 114.075 148.642 115.143 148.347C115.549 148.236 115.733 148.642 115.696 149.158Z" fill="#1A3148"/>
<path d="M112.417 76.4959C113.227 76.201 114.001 75.8323 114.849 75.648C117.17 75.1688 118.055 73.6941 117.944 71.4453C117.907 70.0813 117.944 68.7542 117.944 67.3164C119.418 67.5007 120.302 68.9016 121.74 68.7173C122.992 68.533 124.245 68.238 125.646 67.98C126.125 69.5283 125.572 71.1504 126.014 72.7356C126.272 73.6573 126.604 73.8785 127.414 73.9891C129.736 74.3208 132.021 74.6895 134.305 75.0582C135.374 75.7955 134.932 76.9752 135.079 77.9337C135.558 81.2147 135.485 84.5326 134.416 87.703C133.163 91.6108 130.141 92.7536 126.051 91.5002C122.624 90.4679 120.192 87.9611 117.981 85.3436C115.77 82.6893 113.485 79.9613 112.417 76.4959Z" fill="#FEFEFE"/>
<path d="M148.234 93.8226C149.045 93.5276 149.303 94.0806 149.598 94.6705C151.809 98.91 153.246 103.334 152.546 108.2C152.03 112.108 152.104 115.979 152.325 119.886C152.362 120.476 152.656 121.14 151.883 121.472C151.182 121.177 151.182 120.55 151.146 119.923C150.961 115.905 150.851 111.85 151.403 107.831C151.956 103.666 150.777 99.8685 149.008 96.1451C148.713 95.4446 148.013 94.7811 148.234 93.8226Z" fill="#21201F"/>
<path d="M118.46 110.965C117.502 110.707 116.138 110.154 114.922 109.306C114.628 109.122 114.554 108.827 114.738 108.495C114.922 108.2 115.217 108.126 115.512 108.311C116.691 108.974 117.87 109.564 119.197 109.896C119.529 109.97 119.823 110.191 119.75 110.523C119.676 110.928 119.344 111.112 118.46 110.965Z" fill="#2E2719"/>
<path d="M128.262 33.4001C128.188 36.3125 130.141 36.1282 131.836 36.3863C134.195 36.718 136.553 37.1604 138.911 37.4922C139.906 37.6397 140.275 37.9715 140.164 39.0037C139.427 45.7501 138.064 52.349 134.563 58.2844C131.873 62.8188 128.262 66.2473 122.882 67.3902C121.85 67.6113 120.966 67.427 120.081 66.9109C113.927 63.3718 111.311 57.7314 110.648 50.985C110.168 45.9713 110.832 41.0682 111.9 36.2019C112.158 35.0222 112.564 34.7273 113.743 34.9116C116.875 35.4277 120.081 35.6121 123.287 35.6489C125.13 35.6489 126.972 35.6858 128.262 33.4001Z" fill="#FEFEFE"/>
<path d="M121.703 14.4881C122.255 14.4881 122.44 14.4512 122.587 14.4881C123.066 14.5618 123.84 14.2669 123.803 15.1148C123.766 15.7784 123.103 15.6309 122.624 15.6309C120.229 15.6309 118.091 16.3682 116.138 17.7322C115.033 18.5064 114.075 19.428 113.19 20.4603C112.895 20.7921 112.601 21.3819 112.011 20.8289C111.532 20.3865 111.937 20.0548 112.195 19.723C114.812 16.7369 117.944 14.6724 121.703 14.4881Z" fill="#F5F5F7"/>
<path d="M110.795 23.815C110.537 24.368 110.426 24.5892 110.316 24.8104C109.395 26.6906 108.621 28.6076 107.994 30.5983C107.884 31.0038 107.736 31.5568 107.184 31.4093C106.52 31.2619 106.668 30.7089 106.815 30.2296C107.442 28.1652 108.215 26.1744 109.21 24.2574C109.395 23.9256 109.579 23.4464 110.132 23.5939C110.426 23.6676 110.648 23.7782 110.795 23.815Z" fill="#F1F1F3"/>
<path d="M129.846 30.967C129.809 30.156 129.625 29.4187 130.325 29.3081C131.062 29.1975 130.952 30.0085 131.099 30.5246C131.431 31.7043 130.657 33.2527 132.315 33.99C132.389 34.0269 132.426 34.5061 132.315 34.6167C132.02 35.0222 131.541 34.801 131.136 34.801C130.583 34.801 130.215 34.543 130.178 33.9163C130.03 32.8472 129.957 31.7781 129.846 30.967Z" fill="#E1E3E5"/>
<path d="M172.297 151.038C175.872 150.264 179.336 150.153 182.947 150.042C181.473 150.854 175.172 151.443 172.297 151.038Z" fill="#495C70"/>
<path d="M303.778 31.8518C308.237 31.8887 312.696 31.8149 317.154 32.1836C318.481 32.2942 318.886 32.9946 319.034 33.99C319.844 39.0406 320.581 44.0912 321.355 49.1417C322.019 53.3444 322.719 57.5471 323.382 61.7497C324.193 66.7266 324.967 71.7403 325.74 76.7171C325.888 77.7862 325.409 78.4867 324.266 78.6341C320.324 79.1502 316.417 79.5189 312.438 79.8507C308.274 80.1825 304.11 80.1825 299.982 80.0719C294.455 79.9244 288.89 79.5558 283.437 78.6341C282.331 78.4498 281.815 77.7862 281.963 76.7171C282.81 71.0767 283.695 65.3994 284.579 59.759C285.537 53.7499 286.495 47.7408 287.453 41.7318C287.859 39.188 288.19 36.6812 288.596 34.1375C288.817 32.884 289.406 32.2942 290.917 32.1467C295.229 31.7781 299.503 31.8887 303.778 31.8518Z" fill="#FEFEFE"/>
<path d="M124.577 54.7821C124.171 54.7452 123.913 54.782 123.655 54.7452C123.213 54.7083 122.771 54.5609 122.808 54.0079C122.882 53.4918 123.287 53.6024 123.655 53.5655C125.94 53.3812 125.903 53.3812 125.608 51.1692C125.424 49.7315 125.35 48.2569 125.24 46.7822C125.203 46.3767 125.166 45.8237 125.793 45.8237C126.345 45.8237 126.419 46.2661 126.419 46.7454C126.456 48.8467 126.861 50.8743 127.082 52.9388C127.304 54.7821 125.535 54.4871 124.577 54.7821Z" fill="#21222A"/>
<path d="M137.806 43.1327C137.658 43.8331 137.179 43.87 136.7 43.5382C134.968 42.2848 133.126 42.1004 131.136 42.8746C130.767 43.0221 130.399 42.9852 130.215 42.5428C130.104 42.211 130.325 41.9898 130.583 41.8055C132.131 40.6995 136.332 41.2157 137.474 42.6903C137.658 42.8377 137.732 42.9852 137.806 43.1327Z" fill="#25272D"/>
<path d="M118.939 40.2202C119.823 40.2571 120.597 40.2939 121.334 40.6995C121.629 40.8469 121.813 41.0681 121.703 41.4368C121.592 41.8054 121.261 41.8792 120.966 41.7686C118.902 41.0313 117.023 41.3999 115.328 42.7639C115.033 42.9851 114.628 43.0957 114.37 42.7271C114.149 42.3584 114.37 42.0266 114.664 41.8054C115.917 40.7363 117.391 40.2202 118.939 40.2202Z" fill="#20222A"/>
<path d="M122.44 60.5331C122.366 61.0123 122.071 61.2335 121.666 61.1598C120.302 60.9017 119.418 60.017 118.828 58.8373C118.681 58.5423 118.718 58.2105 119.05 58.0631C119.234 57.9893 119.602 57.9893 119.713 58.1368C120.339 59.0584 121.076 59.8326 122.182 60.1644C122.292 60.2013 122.366 60.4225 122.44 60.5331Z" fill="#25272E"/>
<path d="M133.347 47.4827C133.163 47.9619 133.458 48.8836 132.573 48.8467C131.799 48.8098 132.02 48.0357 132.057 47.5195C132.094 47.0034 131.984 46.2661 132.721 46.2292C133.531 46.2292 133.347 46.9297 133.347 47.4827Z" fill="#414249"/>
<path d="M118.644 46.4874C118.607 46.6348 118.976 47.5196 117.981 47.5934C117.428 47.6302 117.465 47.0035 117.539 46.6348C117.649 46.045 117.317 45.1234 118.202 44.9759C118.755 44.8653 118.791 45.5289 118.644 46.4874Z" fill="#2B2C34"/>
<path d="M303.852 77.5281C298.177 77.6755 292.502 77.3806 286.901 76.5327C286.385 76.459 285.353 76.7539 285.427 75.906C285.501 74.9475 286.533 75.3161 287.085 75.3899C294.418 76.5696 301.825 76.5696 309.195 76.4221C312.88 76.3484 316.602 76.0534 320.287 75.4636C321.172 75.3161 322.719 74.8738 322.867 75.7954C323.051 76.9014 321.54 76.4221 320.803 76.5327C315.202 77.3806 309.527 77.7124 303.852 77.5281Z" fill="#E8E8E9"/>
</g>
<path d="M2 236H342" stroke="black" stroke-width="3" stroke-linecap="round"/>
<path d="M29 236H115" stroke="#54BDB0" stroke-width="3" stroke-linecap="round"/>
<path d="M115 236H201" stroke="#FFD60A" stroke-width="3"/>
<path d="M342 237.5C342.828 237.5 343.5 236.828 343.5 236C343.5 235.172 342.828 234.5 342 234.5V237.5ZM201 237.5H342V234.5H201V237.5Z" fill="#DD284A"/>
<rect x="60.5" y="220.5" width="3" height="31" rx="1.5" fill="#494949" stroke="white"/>
<defs>
<clipPath id="clip0">
<rect width="321" height="199" fill="white" transform="translate(12)"/>
</clipPath>
</defs>
</svg>
