<svg width="29" height="28" viewBox="0 0 29 28" fill="none" xmlns="http://www.w3.org/2000/svg">
<path d="M5.04688 3.6875C5.04688 2.26364 6.20114 1.10938 7.625 1.10938H17.0781V5.40625C17.0781 6.83011 18.2324 7.98438 19.6562 7.98438H23.9531V24.3125C23.9531 25.7364 22.7989 26.8906 21.375 26.8906H7.625C6.20114 26.8906 5.04688 25.7364 5.04688 24.3125V3.6875Z" fill="#F8F8F8"/>
<path opacity="0.4" d="M17.0781 5.40625V1.10938L23.9531 7.98438H19.6562C18.2324 7.98438 17.0781 6.83011 17.0781 5.40625Z" fill="#F8F8F8"/>
<path fill-rule="evenodd" clip-rule="evenodd" d="M9.34375 13.1406C9.34375 12.666 9.72851 12.2812 10.2031 12.2812H18.7969C19.2715 12.2812 19.6562 12.666 19.6562 13.1406C19.6562 13.6152 19.2715 14 18.7969 14H10.2031C9.72851 14 9.34375 13.6152 9.34375 13.1406ZM9.34375 16.5781C9.34375 16.1035 9.72851 15.7188 10.2031 15.7188H18.7969C19.2715 15.7188 19.6562 16.1035 19.6562 16.5781C19.6562 17.0527 19.2715 17.4375 18.7969 17.4375H10.2031C9.72851 17.4375 9.34375 17.0527 9.34375 16.5781ZM10.2031 19.1562C9.72851 19.1562 9.34375 19.541 9.34375 20.0156C9.34375 20.4902 9.72851 20.875 10.2031 20.875H16.2188C16.6934 20.875 17.0781 20.4902 17.0781 20.0156C17.0781 19.541 16.6934 19.1562 16.2188 19.1562H10.2031Z" fill="#DD284A"/>
</svg>
