<svg width="300" height="175" viewBox="0 0 300 175" fill="none" xmlns="http://www.w3.org/2000/svg">
<g clip-path="url(#clip0)">
<rect width="300" height="175" fill="white"/>
<rect width="300" height="175" fill="url(#paint0_linear)"/>
<path opacity="0.15" d="M22.092 87.0294C-4.5 66 -25 70 -36.908 75.0294C-39.2413 100.696 -42.508 154.829 -36.908 166.029C-29.908 180.029 33.092 186.029 76.092 193.029C110.492 198.629 260.425 204.363 326.092 193.029C333.092 150.029 342.892 15.8294 326.092 15.0294C305.092 14.0294 256.047 38.508 222 95.5079C177.5 170.008 160 69 110.5 57.5C82.1852 50.9218 48.7309 108.096 22.092 87.0294Z" fill="white"/>
<path opacity="0.15" d="M22 99.0294C0.382439 89.7813 -18.5746 98.3627 -32.908 99.0294C-35.2413 124.696 -38.508 178.829 -32.908 190.029C-25.908 204.029 37.092 210.029 80.092 217.029C114.492 222.629 264.425 201.363 330.092 190.029C337.092 147.029 346.892 39.8294 330.092 39.0294C309.092 38.0294 260.047 62.508 226 119.508C181.5 194.008 111 176.008 86 150.008C65.8521 129.054 50 111.008 22 99.0294Z" fill="white"/>
<path d="M208.069 65.5757C207.133 66.0381 206.21 66.5596 205.475 67.3014C204.763 68.0215 204.261 68.9154 203.775 69.8031C202.913 71.3798 202.052 73.2173 202.669 74.9027C203.074 76.0108 204.072 76.824 205.175 77.243C206.278 77.6589 207.477 77.7272 208.654 77.7117C212.223 77.6651 215.78 76.8829 219.042 75.4335C220.024 74.9958 220.991 74.493 221.806 73.7915C222.633 73.0807 223.29 72.1806 223.788 71.2091C224.659 69.5144 225.009 67.3045 223.841 65.796C223.008 64.719 221.613 64.269 220.281 63.9989C215.993 63.1298 212 63.6296 208.069 65.5757Z" fill="#808AFF"/>
<path d="M263.11 155.178C263.054 155.178 262.998 155.153 262.964 155.103C262.902 155.022 262.921 154.908 263.001 154.846C269.405 150.007 274.402 143.52 277.448 136.089C277.971 134.813 278.259 132.917 277.661 131.762C277.404 131.266 277.001 130.952 276.469 130.834C275.759 130.673 275.022 130.962 274.384 131.247C273.048 131.837 271.753 132.551 270.536 133.367C269.941 133.764 269.352 134.196 268.791 134.643C268.723 134.695 268.627 134.792 268.513 134.903C267.949 135.453 267.49 135.866 267.131 135.729C267.041 135.695 266.991 135.596 267.019 135.506C267.109 135.201 267.218 134.916 267.32 134.64C267.555 134.013 267.775 133.417 267.788 132.693C267.797 132.119 267.67 131.716 267.41 131.495C267.174 131.297 266.812 131.228 266.335 131.287C265.272 131.421 264.284 132.026 263.624 132.945C263.577 133.01 263.491 133.038 263.416 133.01C263.339 132.982 263.289 132.911 263.292 132.827C263.314 132.346 263.413 131.852 263.509 131.377C263.559 131.132 263.608 130.887 263.646 130.645C264.541 124.971 264.987 119.182 264.965 113.44C264.959 111.432 264.59 106.683 261.331 105.907C259.317 105.429 257.304 106.879 256.086 108.394C253.127 112.084 252.43 117.18 251.87 121.278C251.857 121.371 251.777 121.436 251.684 121.436C251.591 121.433 251.513 121.361 251.504 121.268C251.402 120.151 250.776 119.077 249.788 118.326C248.799 117.575 247.597 117.261 246.494 117.463C245.391 117.668 244.385 118.391 243.728 119.446C243.285 120.157 243.049 120.945 243.037 121.712C243.173 122.088 243.226 122.482 243.179 122.879C243.17 122.966 243.099 123.034 243.012 123.041C242.916 123.047 242.845 122.991 242.82 122.907C242.718 122.541 242.668 122.162 242.668 121.777C242.501 121.361 242.21 120.973 241.807 120.654C240.884 119.915 239.573 119.66 238.548 120.02C236.484 120.747 235.409 123.019 235.09 124.903C235.09 124.903 235.09 124.903 235.09 124.906C235.075 125.005 234.982 125.07 234.88 125.058C234.78 125.042 234.712 124.946 234.728 124.847C234.898 123.785 234.415 122.764 233.396 122.038C232.02 121.057 230.118 120.883 228.77 121.613C226.106 123.059 225.189 126.414 224.888 128.975C224.879 129.068 224.798 129.136 224.705 129.136C224.705 129.136 224.702 129.136 224.699 129.136C224.603 129.133 224.529 129.059 224.523 128.966L223.937 119.695C223.788 117.32 223.101 113.267 220.182 112.81C217.409 112.376 215.538 115.669 215.033 116.687C213.462 119.844 212.654 123.363 212.685 126.889C212.697 127.041 212.7 127.193 212.694 127.346C212.688 127.445 212.601 127.516 212.508 127.519C212.409 127.519 212.328 127.439 212.325 127.342C212.322 127.197 212.319 127.054 212.316 126.908C212.232 125.974 211.731 125.049 210.919 124.372C209.986 123.593 208.806 123.276 207.762 123.525C206.718 123.773 205.804 124.583 205.314 125.697C204.828 126.812 204.85 128.035 205.376 128.972C205.42 129.046 205.404 129.143 205.339 129.199C205.274 129.254 205.178 129.261 205.11 129.211C204.01 128.419 203.62 127.026 203.242 125.676C202.823 124.186 202.427 122.777 201.138 122.302C199.809 121.811 198.325 122.808 197.712 124.015C197.042 125.331 197.064 126.908 197.083 128.298C197.083 128.392 197.018 128.469 196.925 128.482C196.835 128.497 196.748 128.438 196.72 128.351C195.125 122.798 191.72 117.804 187.141 114.294C185.183 112.792 182.432 111.91 181.019 113.515C180.387 114.235 180.226 115.284 180.145 116.308C179.674 122.389 180.954 128.724 183.748 134.143C183.792 134.224 183.767 134.323 183.693 134.376C183.618 134.428 183.516 134.419 183.454 134.351C182.652 133.488 181.741 132.513 180.582 132.054C179.547 131.644 178.067 131.741 177.363 132.728C177.004 133.234 176.902 133.885 176.858 134.397C176.716 135.987 176.97 137.604 177.596 139.072C177.633 139.162 177.596 139.264 177.509 139.308C177.422 139.351 177.317 139.32 177.267 139.236C176.363 137.656 175.21 135.915 173.518 134.947C172.004 134.081 169.668 133.919 168.32 135.322C165.885 137.861 168.738 142.107 170.08 143.814C173.106 147.669 176.539 152.043 181.351 154.166C181.443 154.206 181.484 154.315 181.443 154.408C181.403 154.501 181.295 154.544 181.202 154.501C176.307 152.341 172.846 147.93 169.791 144.041C168.391 142.256 165.417 137.815 168.053 135.065C169.531 133.525 172.062 133.69 173.698 134.624C174.975 135.353 175.951 136.493 176.744 137.681C176.477 136.601 176.387 135.474 176.49 134.363C176.539 133.808 176.651 133.094 177.063 132.513C177.884 131.362 179.523 131.238 180.715 131.713C181.561 132.048 182.271 132.628 182.896 133.246C180.406 127.96 179.327 122.122 179.78 116.277C179.863 115.188 180.04 114.07 180.743 113.27C182.311 111.485 185.273 112.397 187.364 113.999C191.689 117.314 194.976 121.926 196.714 127.091C196.739 125.995 196.869 124.859 197.383 123.844C198.068 122.5 199.744 121.395 201.262 121.954C202.731 122.494 203.167 124.059 203.595 125.573C203.874 126.563 204.159 127.578 204.726 128.32C204.496 127.448 204.58 126.461 204.98 125.545C205.513 124.325 206.523 123.435 207.678 123.162C208.834 122.888 210.135 123.233 211.154 124.083C211.675 124.518 212.078 125.046 212.344 125.617C212.493 122.463 213.298 119.35 214.705 116.519C215.241 115.445 217.22 111.975 220.238 112.444C223.407 112.938 224.145 117.18 224.303 119.667L224.786 127.311C225.275 125.002 226.335 122.51 228.594 121.284C230.059 120.489 232.119 120.675 233.606 121.731C234.334 122.249 234.818 122.907 235.019 123.633C235.552 121.967 236.642 120.294 238.424 119.67C239.579 119.263 240.998 119.536 242.033 120.362C242.309 120.582 242.541 120.831 242.721 121.098C242.82 120.461 243.052 119.828 243.415 119.245C244.124 118.099 245.224 117.317 246.426 117.094C247.628 116.87 248.936 117.208 250.008 118.025C250.776 118.608 251.343 119.375 251.643 120.213C252.198 116.265 253.016 111.621 255.801 108.155C256.424 107.375 258.673 104.886 261.415 105.541C262.868 105.886 265.312 107.372 265.331 113.431C265.349 119.192 264.903 124.999 264.005 130.691C263.965 130.937 263.915 131.188 263.866 131.439C263.813 131.703 263.757 131.973 263.717 132.24C264.411 131.508 265.319 131.03 266.285 130.909C266.871 130.834 267.326 130.934 267.642 131.2C267.995 131.498 268.163 131.986 268.15 132.687C268.138 133.476 267.905 134.096 267.658 134.754C267.589 134.934 267.521 135.118 267.456 135.307C267.713 135.152 268.098 134.776 268.249 134.627C268.373 134.506 268.482 134.401 268.553 134.342C269.123 133.885 269.718 133.451 270.322 133.047C271.558 132.219 272.872 131.495 274.226 130.896C274.969 130.567 275.762 130.288 276.54 130.462C277.184 130.608 277.668 130.983 277.977 131.579C278.634 132.842 278.352 134.82 277.779 136.213C274.709 143.709 269.671 150.249 263.212 155.125C263.187 155.165 263.147 155.178 263.11 155.178Z" fill="#8E97FD"/>
<path d="M248.213 155.602C248.145 155.605 248.08 155.559 248.065 155.487C247.25 152.039 246.692 148.5 246.407 144.968C246.33 144.009 246.255 142.876 246.296 141.734C246.413 138.354 247.504 134.977 249.453 131.963C251.256 129.173 253.815 126.702 256.848 124.812C256.916 124.768 257.009 124.79 257.052 124.858C257.096 124.927 257.074 125.02 257.006 125.063C254.007 126.929 251.482 129.368 249.703 132.121C247.786 135.089 246.711 138.416 246.596 141.74C246.556 142.867 246.63 143.991 246.708 144.94C246.993 148.457 247.547 151.983 248.356 155.416C248.374 155.496 248.325 155.574 248.247 155.593C248.232 155.599 248.223 155.602 248.213 155.602Z" fill="#565D70"/>
<path d="M257.353 123.844C257.496 123.716 257.666 123.62 257.84 123.539C258.379 123.282 259.005 123.123 259.572 123.31C259.624 123.325 259.674 123.347 259.714 123.387C259.751 123.425 259.77 123.477 259.779 123.527C259.813 123.723 259.708 123.912 259.593 124.07C259.243 124.545 258.729 124.883 258.168 125.045C257.846 125.138 256.697 125.374 256.833 124.765C256.904 124.427 257.093 124.073 257.353 123.844Z" fill="#565D70"/>
<path d="M254.8 127.28C255.476 127.215 256.157 127.258 256.833 127.311C257.263 127.345 257.694 127.385 258.125 127.429C258.211 127.438 258.317 127.466 258.332 127.55C258.351 127.643 258.239 127.705 258.153 127.745C257.552 128.015 257.183 128.633 256.635 128.999C256.238 129.263 255.764 129.384 255.29 129.449C254.893 129.502 254.491 129.518 254.091 129.496C253.766 129.477 253.428 129.428 253.162 129.241C252.892 129.052 252.728 128.723 252.722 128.394C252.715 127.984 253.034 127.739 253.385 127.606C253.837 127.429 254.323 127.323 254.8 127.28Z" fill="#565D70"/>
<path d="M250.615 132.944C251.29 132.879 251.972 132.923 252.647 132.975C253.078 133.01 253.508 133.05 253.939 133.093C254.026 133.103 254.131 133.128 254.147 133.214C254.165 133.308 254.054 133.37 253.967 133.41C253.366 133.68 252.997 134.298 252.449 134.664C252.052 134.928 251.578 135.049 251.104 135.114C250.708 135.167 250.305 135.182 249.905 135.161C249.58 135.142 249.242 135.092 248.976 134.906C248.706 134.717 248.542 134.388 248.536 134.059C248.53 133.649 248.849 133.404 249.199 133.27C249.651 133.097 250.134 132.991 250.615 132.944Z" fill="#565D70"/>
<path d="M248.381 138.249C249.001 137.976 249.664 137.802 250.32 137.641C250.742 137.538 251.163 137.439 251.584 137.346C251.668 137.327 251.777 137.321 251.82 137.395C251.866 137.479 251.783 137.572 251.712 137.634C251.225 138.081 251.07 138.783 250.664 139.301C250.37 139.677 249.958 139.941 249.53 140.148C249.171 140.322 248.793 140.465 248.406 140.568C248.093 140.651 247.755 140.71 247.442 140.617C247.126 140.521 246.869 140.263 246.758 139.95C246.621 139.565 246.847 139.23 247.139 138.994C247.514 138.693 247.941 138.441 248.381 138.249Z" fill="#565D70"/>
<path d="M248.111 144.761C248.703 144.425 249.341 144.189 249.983 143.963C250.392 143.82 250.801 143.68 251.213 143.547C251.293 143.519 251.402 143.5 251.451 143.572C251.504 143.649 251.43 143.752 251.368 143.823C250.928 144.314 250.841 145.031 250.488 145.586C250.234 145.99 249.846 146.294 249.441 146.542C249.1 146.753 248.737 146.93 248.362 147.07C248.059 147.185 247.73 147.278 247.411 147.213C247.089 147.147 246.804 146.918 246.665 146.617C246.491 146.244 246.683 145.89 246.95 145.627C247.294 145.288 247.693 144.996 248.111 144.761Z" fill="#565D70"/>
<path d="M251.461 128.058C251.461 127.67 251.449 127.279 251.38 126.898C251.328 126.593 251.241 126.292 251.151 125.997C250.863 125.035 250.532 124.039 249.822 123.328C249.8 123.306 249.776 123.282 249.745 123.272C249.667 123.244 249.584 123.306 249.553 123.384C249.522 123.459 249.528 123.545 249.525 123.626C249.518 123.806 249.463 123.98 249.407 124.151C249.261 124.604 249.116 125.06 248.97 125.513C248.75 126.196 248.53 126.888 248.481 127.605C248.431 128.322 248.567 129.077 249.004 129.645C249.15 129.834 249.326 130.001 249.515 130.147C249.695 130.287 249.893 130.414 250.113 130.464C250.411 130.532 250.736 130.448 250.965 130.247C251.229 130.017 251.322 129.641 251.359 129.306C251.411 128.89 251.458 128.477 251.461 128.058Z" fill="#565D70"/>
<path d="M247.823 132.392C247.662 132.038 247.489 131.687 247.269 131.368C247.092 131.113 246.891 130.877 246.686 130.644C246.026 129.887 245.311 129.12 244.372 128.77C244.341 128.757 244.31 128.748 244.279 128.751C244.199 128.757 244.146 128.85 244.149 128.931C244.152 129.012 244.192 129.089 244.223 129.164C244.292 129.331 244.313 129.511 244.335 129.688C244.391 130.163 244.446 130.635 244.502 131.11C244.586 131.824 244.673 132.544 244.924 133.214C245.174 133.888 245.614 134.515 246.246 134.853C246.457 134.965 246.686 135.042 246.922 135.098C247.142 135.151 247.374 135.185 247.597 135.139C247.895 135.077 248.158 134.866 248.285 134.586C248.431 134.266 248.356 133.888 248.254 133.568C248.124 133.168 247.994 132.77 247.823 132.392Z" fill="#565D70"/>
<path d="M244.701 138.686C244.35 138.518 243.991 138.366 243.616 138.264C243.319 138.183 243.012 138.134 242.705 138.087C241.714 137.935 240.673 137.811 239.728 138.149C239.697 138.162 239.666 138.171 239.644 138.196C239.586 138.255 239.607 138.357 239.66 138.419C239.716 138.481 239.793 138.509 239.867 138.55C240.025 138.633 240.159 138.757 240.289 138.879C240.636 139.204 240.983 139.53 241.333 139.856C241.856 140.347 242.386 140.843 243.012 141.194C243.638 141.545 244.375 141.743 245.075 141.591C245.311 141.542 245.534 141.452 245.748 141.343C245.952 141.241 246.147 141.116 246.29 140.936C246.479 140.697 246.541 140.365 246.46 140.07C246.364 139.732 246.067 139.49 245.782 139.31C245.432 139.09 245.078 138.866 244.701 138.686Z" fill="#565D70"/>
<path d="M244.923 145.173C244.573 145.006 244.214 144.854 243.839 144.751C243.542 144.67 243.235 144.621 242.928 144.574C241.937 144.422 240.896 144.298 239.951 144.636C239.92 144.649 239.889 144.658 239.867 144.683C239.808 144.742 239.83 144.844 239.883 144.906C239.939 144.968 240.016 144.996 240.09 145.037C240.248 145.121 240.382 145.245 240.512 145.366C240.859 145.692 241.206 146.018 241.556 146.343C242.079 146.834 242.609 147.33 243.235 147.681C243.861 148.032 244.598 148.231 245.298 148.078C245.534 148.029 245.757 147.939 245.971 147.83C246.175 147.728 246.37 147.604 246.513 147.424C246.702 147.185 246.764 146.852 246.683 146.558C246.587 146.219 246.29 145.977 246.005 145.797C245.651 145.574 245.298 145.353 244.923 145.173Z" fill="#565D70"/>
<path d="M243.192 140.958C243.505 139.521 244.497 137.82 245.94 138.093C246.956 138.285 247.508 139.387 247.808 140.38C248.468 142.547 248.676 144.853 248.416 147.103C248.465 144.142 249.277 141.2 250.755 138.636C251.226 137.817 251.889 136.96 252.827 136.876C253.816 136.786 254.686 137.655 254.956 138.611C255.225 139.57 255.042 140.588 254.857 141.566C255.417 135.877 256.663 129.567 261.344 126.298C262.289 125.637 263.389 125.125 264.541 125.125C265.694 125.125 266.896 125.74 267.339 126.807C267.581 127.388 267.584 128.037 267.54 128.663C267.172 133.915 263.86 138.465 260.371 142.407C261.205 142.038 262.069 141.662 262.98 141.65C263.891 141.638 264.873 142.084 265.207 142.935C265.619 143.984 264.91 145.157 264.027 145.859C263.147 146.56 262.069 147.016 261.304 147.845C262.909 147.47 265.025 147.308 265.784 148.776C266.118 149.428 266.047 150.21 265.895 150.927C264.981 155.183 261.26 158.681 256.963 159.326C247.207 160.785 241.386 149.239 243.192 140.958Z" fill="#F2EDE4"/>
<path d="M251.111 157.489C251.102 157.489 251.092 157.489 251.083 157.486C251.027 157.47 250.996 157.411 251.012 157.359C251.08 157.123 257.849 133.729 265.613 126.922C265.656 126.885 265.721 126.888 265.759 126.932C265.796 126.975 265.793 127.04 265.749 127.078C258.032 133.847 251.278 157.179 251.213 157.414C251.198 157.461 251.154 157.489 251.111 157.489Z" fill="#D9C9AC"/>
<path d="M251.777 155.301C251.752 155.301 251.73 155.295 251.712 155.276C244.472 149.363 245.274 140.853 245.28 140.769C245.286 140.713 245.339 140.669 245.395 140.676C245.451 140.682 245.494 140.732 245.488 140.79C245.478 140.874 244.692 149.276 251.842 155.115C251.885 155.152 251.895 155.217 251.857 155.261C251.836 155.288 251.805 155.301 251.777 155.301Z" fill="#D9C9AC"/>
<path d="M253.661 149.671C253.62 149.671 253.58 149.646 253.564 149.609C251.631 145.018 252.818 138.41 252.83 138.345C252.84 138.289 252.892 138.249 252.951 138.261C253.007 138.27 253.044 138.326 253.035 138.382C253.022 138.447 251.848 144.993 253.757 149.528C253.778 149.581 253.753 149.643 253.701 149.665C253.688 149.668 253.676 149.671 253.661 149.671Z" fill="#D9C9AC"/>
<path d="M252.182 156.424C251.714 156.424 251.442 156.4 251.426 156.4C251.371 156.393 251.327 156.344 251.333 156.285C251.34 156.229 251.389 156.182 251.448 156.192C251.532 156.201 259.859 156.927 264.07 149.928C264.101 149.878 264.163 149.863 264.212 149.894C264.262 149.925 264.277 149.987 264.246 150.037C260.721 155.897 254.363 156.424 252.182 156.424Z" fill="#D9C9AC"/>
<path d="M254.801 146.573C254.745 146.573 254.699 146.53 254.695 146.474C254.692 146.418 254.739 146.368 254.795 146.365C254.844 146.362 259.786 146.17 263.206 143.209C263.249 143.171 263.314 143.174 263.352 143.218C263.389 143.261 263.386 143.326 263.342 143.364C259.866 146.374 254.853 146.57 254.804 146.573C254.801 146.573 254.801 146.573 254.801 146.573Z" fill="#D9C9AC"/>
<path d="M259.389 136.091C259.336 136.091 259.289 136.051 259.283 135.995C259.28 135.958 259.035 132.221 260.801 129.139C260.829 129.089 260.894 129.074 260.944 129.102C260.993 129.129 261.012 129.195 260.981 129.244C259.246 132.267 259.488 135.946 259.491 135.983C259.494 136.039 259.45 136.091 259.395 136.095C259.395 136.091 259.392 136.091 259.389 136.091Z" fill="#D9C9AC"/>
<path d="M261.727 131.978C261.684 131.978 261.641 131.951 261.628 131.907C261.61 131.851 261.641 131.792 261.696 131.777C261.734 131.764 265.34 130.622 266.393 129.346C266.43 129.303 266.495 129.297 266.539 129.334C266.582 129.371 266.588 129.436 266.551 129.48C265.458 130.802 261.907 131.929 261.755 131.975C261.749 131.975 261.74 131.978 261.727 131.978Z" fill="#D9C9AC"/>
<path d="M258.01 139.834C257.747 139.834 257.595 139.791 257.573 139.784C257.517 139.766 257.489 139.71 257.505 139.654C257.524 139.598 257.579 139.567 257.635 139.586C257.651 139.589 259.193 140.027 261.418 137.758C261.458 137.717 261.523 137.714 261.563 137.758C261.604 137.798 261.604 137.863 261.563 137.904C259.925 139.576 258.645 139.834 258.01 139.834Z" fill="#D9C9AC"/>
<path d="M252.489 145.344C252.071 145.344 251.067 145.123 250.423 143.171C250.404 143.115 250.435 143.056 250.488 143.041C250.544 143.022 250.603 143.053 250.618 143.106C251.371 145.381 252.582 145.136 252.632 145.123C252.688 145.108 252.743 145.145 252.756 145.201C252.768 145.257 252.734 145.313 252.678 145.325C252.669 145.328 252.601 145.344 252.489 145.344Z" fill="#D9C9AC"/>
<path d="M247.322 149.835C247.319 149.835 247.319 149.835 247.316 149.835C247.244 149.829 245.528 149.695 244.453 147.47C244.428 147.417 244.45 147.355 244.502 147.33C244.552 147.305 244.617 147.327 244.642 147.38C245.664 149.497 247.312 149.624 247.328 149.627C247.384 149.63 247.43 149.68 247.424 149.739C247.424 149.791 247.377 149.835 247.322 149.835Z" fill="#D9C9AC"/>
<path d="M249.119 152.61C249.097 152.61 249.075 152.603 249.057 152.588C249.01 152.554 249.004 152.488 249.038 152.442C249.047 152.43 250.02 151.107 249.212 147.637C249.199 147.581 249.233 147.525 249.289 147.513C249.345 147.501 249.401 147.535 249.413 147.591C250.246 151.172 249.243 152.516 249.199 152.569C249.177 152.597 249.15 152.61 249.119 152.61Z" fill="#D9C9AC"/>
<path d="M255.82 156.008C255.811 156.008 255.802 156.008 255.795 156.005C255.74 155.99 255.706 155.934 255.721 155.878C255.774 155.673 257.044 150.822 259.395 149.701C259.448 149.676 259.51 149.698 259.535 149.751C259.56 149.804 259.538 149.866 259.485 149.891C257.224 150.971 255.938 155.881 255.926 155.931C255.91 155.977 255.867 156.008 255.82 156.008Z" fill="#D9C9AC"/>
<path d="M260.997 155.264C260.827 155.264 260.669 155.236 260.526 155.177C259.938 154.941 259.807 154.317 259.801 154.289C259.789 154.233 259.826 154.178 259.882 154.168C259.941 154.156 259.993 154.193 260.006 154.249C260.006 154.255 260.12 154.792 260.607 154.985C261.112 155.183 261.861 154.95 262.779 154.302C262.825 154.268 262.89 154.28 262.924 154.327C262.958 154.373 262.946 154.438 262.899 154.472C262.15 154.997 261.514 155.264 260.997 155.264Z" fill="#D9C9AC"/>
<rect x="220.726" y="87.2571" width="5.86056" height="14.6514" rx="2.93028" fill="#FDFFFC"/>
<rect x="210.958" y="92.1339" width="5.86056" height="14.6514" rx="2.93028" transform="rotate(-41.7192 210.958 92.1339)" fill="#FDFFFC"/>
<rect x="231.774" y="88.2335" width="5.86056" height="14.6514" rx="2.93028" transform="rotate(43.4252 231.774 88.2335)" fill="#FDFFFC"/>
<path d="M190.97 125.238C188.426 125.238 185.914 123.919 183.491 121.309C183.296 121.098 183.308 120.769 183.519 120.573C183.73 120.378 184.058 120.39 184.253 120.601C186.62 123.152 189.04 124.357 191.438 124.18C195.205 123.9 197.717 120.297 197.742 120.26C197.906 120.024 198.229 119.962 198.464 120.126C198.7 120.288 198.762 120.614 198.597 120.849C198.483 121.014 195.772 124.903 191.512 125.22C191.332 125.229 191.15 125.238 190.97 125.238Z" fill="#E9F2DE"/>
<path d="M182.147 122.361C182.066 122.361 181.986 122.358 181.905 122.349C181.614 122.314 181.363 122.224 181.162 122.082C180.527 121.625 180.492 120.756 180.787 120.17C180.914 119.912 181.227 119.807 181.484 119.937C181.741 120.064 181.843 120.378 181.716 120.635C181.608 120.853 181.633 121.138 181.769 121.237C181.825 121.278 181.911 121.303 182.023 121.318C182.361 121.355 182.711 121.244 182.962 121.014C183.213 120.784 183.358 120.446 183.355 120.108C183.352 119.999 183.337 119.906 183.306 119.834C183.241 119.682 183.083 119.558 182.9 119.518C182.711 119.478 182.485 119.524 182.302 119.645C182.06 119.8 181.738 119.732 181.583 119.493C181.428 119.251 181.496 118.928 181.735 118.773C182.15 118.503 182.652 118.401 183.113 118.5C183.625 118.608 184.065 118.965 184.263 119.431C184.347 119.627 184.39 119.85 184.393 120.092C184.402 120.725 184.13 121.358 183.662 121.787C183.25 122.153 182.698 122.361 182.147 122.361Z" fill="#E9F2DE"/>
<path d="M182.76 124.707C182.54 124.707 182.336 124.567 182.264 124.344C181.589 122.221 183.095 120.843 183.16 120.784C183.374 120.591 183.702 120.613 183.894 120.827C184.083 121.041 184.068 121.367 183.854 121.56C183.807 121.603 182.788 122.559 183.253 124.027C183.34 124.3 183.188 124.595 182.915 124.682C182.866 124.701 182.813 124.707 182.76 124.707Z" fill="#E9F2DE"/>
<path d="M181.412 124.999C181.211 124.999 181.018 124.881 180.935 124.685C180.334 123.289 181.322 121.638 181.365 121.569C181.514 121.324 181.833 121.246 182.081 121.395C182.326 121.544 182.403 121.864 182.255 122.109C182.044 122.457 181.57 123.525 181.892 124.273C182.007 124.536 181.886 124.844 181.62 124.956C181.551 124.987 181.48 124.999 181.412 124.999Z" fill="#E9F2DE"/>
<path d="M253.395 106.035C242.028 89.1659 224.279 101.932 224.279 101.932C224.279 101.932 207.732 87.6357 194.915 103.431C182.098 119.223 203.246 144.011 222.352 145.33C241.501 145.715 264.762 122.908 253.395 106.035Z" fill="#93BFA8"/>
<path d="M253.23 105.92C246.956 96.6083 238.74 96.3259 232.637 97.943C237.364 99.8518 250.897 106.575 248.871 120.449C247.359 130.813 236.11 139.553 227.738 144.715C245.453 141.307 263.512 121.184 253.23 105.92Z" fill="#80B996"/>
<path d="M224.114 101.82C224.114 101.82 215.086 94.0229 205.203 96.3104C215.201 98.5389 220.842 103.635 220.842 103.635C222.261 102.745 224.114 101.82 224.114 101.82Z" fill="#80B996"/>
<path d="M200.385 100.528C198.446 101.764 196.887 103.716 196.494 105.985C196.441 106.283 196.41 106.596 196.509 106.882C196.67 107.348 197.157 107.642 197.646 107.704C198.136 107.767 198.625 107.639 199.093 107.484C201.398 106.717 203.474 105.265 205.862 104.827C207.111 104.598 208.412 104.653 209.617 104.256C210.823 103.862 211.966 102.81 211.885 101.543C211.746 99.3583 208.737 98.7841 207.012 98.5854C204.837 98.3371 202.188 99.38 200.385 100.528Z" fill="#66A986"/>
<path d="M226.853 102.48C226.788 102.698 226.745 102.934 226.81 103.151C226.943 103.589 227.454 103.781 227.903 103.859C229.015 104.051 230.18 103.927 231.224 103.508C231.881 103.244 232.504 102.853 232.944 102.297C233.684 101.36 233.861 99.2152 232.327 98.939C231.15 98.7248 229.316 99.6932 228.418 100.357C227.708 100.885 227.113 101.614 226.853 102.48Z" fill="#66A986"/>
<path d="M223.547 103.033C223.373 103.331 223.358 103.738 223.575 104.005C223.761 104.235 224.074 104.322 224.365 104.377C224.662 104.433 224.984 104.467 225.251 104.322C225.393 104.244 225.505 104.123 225.601 103.993C225.861 103.651 226.047 103.179 225.849 102.798C225.725 102.562 225.477 102.41 225.217 102.348C224.579 102.189 223.891 102.45 223.547 103.033Z" fill="#66A986"/>
<path d="M212.995 112.661C213.075 113.083 213.094 113.478 213.082 113.897C213.06 114.309 212.998 114.732 212.84 115.144C212.688 115.557 212.419 115.964 212.028 116.243C211.644 116.529 211.176 116.659 210.733 116.687C210.507 116.702 210.272 116.681 210.036 116.625C209.801 116.563 209.568 116.451 209.373 116.296C208.973 115.982 208.757 115.542 208.642 115.126C208.416 114.281 208.45 113.474 208.586 112.661C208.617 112.478 208.791 112.354 208.973 112.385C209.147 112.416 209.268 112.574 209.252 112.748L209.249 112.77C209.215 113.118 209.203 113.499 209.224 113.856C209.246 114.216 209.293 114.573 209.398 114.893C209.503 115.21 209.655 115.489 209.875 115.65C209.983 115.731 210.104 115.79 210.241 115.824C210.38 115.852 210.529 115.868 210.69 115.855C211.012 115.836 211.319 115.75 211.554 115.579C211.799 115.411 211.976 115.151 212.106 114.849C212.236 114.545 212.304 114.198 212.338 113.844C212.375 113.493 212.369 113.114 212.338 112.773L212.335 112.754C212.316 112.568 212.453 112.404 212.639 112.388C212.809 112.373 212.964 112.494 212.995 112.661Z" fill="#3F4553"/>
<path d="M228.262 112.773C228.231 113.115 228.225 113.493 228.262 113.844C228.293 114.198 228.364 114.545 228.495 114.85C228.625 115.154 228.801 115.411 229.046 115.579C229.285 115.753 229.588 115.84 229.91 115.855C230.068 115.868 230.22 115.852 230.36 115.824C230.496 115.79 230.617 115.731 230.725 115.65C230.942 115.489 231.097 115.21 231.202 114.893C231.308 114.576 231.354 114.216 231.376 113.856C231.401 113.499 231.385 113.118 231.351 112.77L231.348 112.748C231.329 112.562 231.466 112.398 231.652 112.382C231.828 112.367 231.986 112.491 232.014 112.661C232.15 113.475 232.184 114.278 231.958 115.126C231.844 115.542 231.624 115.983 231.227 116.296C231.032 116.451 230.8 116.563 230.564 116.625C230.329 116.681 230.09 116.703 229.867 116.687C229.427 116.662 228.959 116.529 228.572 116.243C228.185 115.964 227.912 115.557 227.76 115.144C227.602 114.732 227.54 114.31 227.519 113.897C227.506 113.478 227.525 113.084 227.605 112.661C227.639 112.478 227.816 112.357 227.999 112.391C228.169 112.422 228.287 112.581 228.271 112.751L228.262 112.773Z" fill="#3F4553"/>
<path d="M220.133 118.673C219.563 118.673 219.055 118.599 218.63 118.5C217.295 118.183 216.474 117.559 216.437 117.531C216.291 117.416 216.264 117.205 216.375 117.059C216.49 116.914 216.7 116.886 216.846 116.997C216.967 117.091 219.857 119.241 223.575 116.976C223.733 116.879 223.941 116.929 224.037 117.087C224.133 117.246 224.083 117.454 223.925 117.55C222.519 118.407 221.211 118.673 220.133 118.673Z" fill="#3F4553"/>
<path d="M262.983 128.584C262.242 128.584 261.511 128.513 260.783 128.373C254.457 127.147 250.971 121.067 250.826 120.809C250.683 120.558 250.773 120.241 251.024 120.102C251.275 119.962 251.591 120.049 251.731 120.3C251.765 120.359 255.135 126.225 260.988 127.355C264.653 128.063 268.532 126.79 272.528 123.581C272.751 123.401 273.08 123.438 273.259 123.662C273.439 123.885 273.402 124.214 273.179 124.394C269.706 127.178 266.285 128.584 262.983 128.584Z" fill="#E9F2DE"/>
<path d="M274.529 125.664C273.978 125.664 273.426 125.456 273.017 125.084C272.55 124.658 272.274 124.025 272.283 123.389C272.286 123.144 272.333 122.923 272.413 122.728C272.608 122.262 273.048 121.905 273.563 121.797C274.024 121.7 274.526 121.8 274.941 122.07C275.183 122.225 275.251 122.548 275.093 122.79C274.935 123.032 274.613 123.1 274.374 122.942C274.192 122.824 273.965 122.774 273.776 122.815C273.594 122.852 273.436 122.976 273.371 123.131C273.34 123.203 273.324 123.296 273.321 123.404C273.315 123.743 273.464 124.081 273.714 124.311C273.965 124.54 274.319 124.652 274.653 124.615C274.765 124.602 274.851 124.575 274.907 124.534C275.044 124.438 275.068 124.149 274.96 123.932C274.833 123.674 274.935 123.361 275.192 123.234C275.449 123.103 275.762 123.209 275.889 123.466C276.181 124.053 276.15 124.922 275.514 125.378C275.313 125.524 275.062 125.614 274.771 125.645C274.69 125.661 274.61 125.664 274.529 125.664Z" fill="#E9F2DE"/>
<path d="M273.916 128.013C273.863 128.013 273.811 128.004 273.758 127.988C273.485 127.901 273.334 127.607 273.42 127.333C273.894 125.847 272.835 124.878 272.822 124.869C272.609 124.677 272.59 124.348 272.779 124.133C272.968 123.919 273.296 123.901 273.513 124.09C273.578 124.149 275.084 125.524 274.409 127.65C274.341 127.87 274.136 128.013 273.916 128.013Z" fill="#E9F2DE"/>
<path d="M275.263 128.305C275.195 128.305 275.124 128.292 275.059 128.261C274.795 128.146 274.675 127.842 274.786 127.575C275.108 126.83 274.634 125.763 274.424 125.412C274.275 125.167 274.352 124.847 274.597 124.698C274.842 124.549 275.161 124.627 275.31 124.872C275.353 124.94 276.341 126.591 275.74 127.988C275.654 128.187 275.465 128.305 275.263 128.305Z" fill="#E9F2DE"/>
<path d="M216.233 147.92C215.852 147.92 215.474 147.914 215.096 147.905C214.808 147.896 214.581 147.657 214.591 147.371C214.6 147.082 214.835 146.865 215.124 146.865C219.585 146.986 224.328 146.378 228.842 145.105C229.517 144.916 230.301 144.664 231.004 144.245C231.314 144.059 231.398 143.932 231.413 143.857C231.444 143.702 231.218 143.46 230.915 143.314C230.208 142.979 229.356 142.97 228.777 142.988C226.745 143.06 224.756 143.659 223.021 144.727C222.776 144.876 222.457 144.801 222.305 144.556C222.156 144.311 222.231 143.991 222.475 143.839C224.362 142.678 226.528 142.026 228.74 141.949C229.424 141.924 230.444 141.942 231.355 142.374C231.946 142.653 232.584 143.262 232.43 144.053C232.321 144.612 231.866 144.941 231.534 145.139C230.723 145.624 229.818 145.912 229.121 146.108C224.889 147.3 220.455 147.92 216.233 147.92Z" fill="#E9F2DE"/>
<path d="M227.826 147.936C223.6 147.936 219.278 147.321 214.962 146.108C214.265 145.912 213.36 145.624 212.549 145.139C212.217 144.941 211.762 144.612 211.653 144.053C211.502 143.262 212.137 142.653 212.728 142.374C213.639 141.943 214.659 141.924 215.343 141.949C217.555 142.026 219.721 142.678 221.608 143.839C221.852 143.988 221.93 144.311 221.778 144.556C221.629 144.801 221.307 144.879 221.062 144.727C219.327 143.662 217.338 143.06 215.306 142.989C214.73 142.97 213.878 142.979 213.171 143.314C212.865 143.46 212.642 143.702 212.673 143.854C212.688 143.929 212.769 144.059 213.079 144.242C213.782 144.661 214.566 144.913 215.241 145.102C219.854 146.4 224.47 147.002 228.959 146.878C229.251 146.881 229.486 147.098 229.492 147.384C229.498 147.672 229.272 147.911 228.987 147.917C228.603 147.93 228.213 147.936 227.826 147.936Z" fill="#E9F2DE"/>
<path d="M227.943 148.668C227.844 148.901 227.757 149.143 227.754 149.395C227.748 149.646 227.838 149.913 228.033 150.068C228.303 150.285 228.718 150.242 229 150.037C229.282 149.832 229.446 149.506 229.545 149.174C229.719 148.603 229.725 147.982 229.567 147.408C229.514 147.219 229.409 146.967 229.183 146.936C228.972 146.905 228.867 147.098 228.764 147.25C228.455 147.706 228.16 148.162 227.943 148.668Z" fill="#E9F2DE"/>
<path d="M216.17 148.668C216.27 148.901 216.356 149.143 216.359 149.395C216.366 149.646 216.276 149.913 216.081 150.068C215.811 150.285 215.396 150.242 215.114 150.037C214.832 149.832 214.668 149.506 214.569 149.174C214.395 148.603 214.389 147.982 214.547 147.408C214.6 147.219 214.705 146.967 214.931 146.936C215.142 146.905 215.247 147.098 215.349 147.25C215.659 147.706 215.954 148.162 216.17 148.668Z" fill="#E9F2DE"/>
<path d="M222.685 161.248C231.663 161.248 238.941 160.358 238.941 159.259C238.941 158.16 231.663 157.269 222.685 157.269C213.708 157.269 206.43 158.16 206.43 159.259C206.43 160.358 213.708 161.248 222.685 161.248Z" fill="#808AFF"/>
<path d="M201.541 157.163C201.609 157.166 201.674 157.12 201.689 157.048C202.504 153.6 203.062 150.061 203.347 146.529C203.424 145.57 203.499 144.437 203.459 143.295C203.341 139.915 202.25 136.538 200.302 133.524C198.498 130.734 195.939 128.263 192.906 126.373C192.838 126.329 192.745 126.351 192.702 126.419C192.658 126.488 192.68 126.581 192.748 126.624C195.747 128.49 198.272 130.929 200.051 133.682C201.968 136.65 203.043 139.977 203.158 143.301C203.198 144.428 203.124 145.552 203.046 146.501C202.761 150.018 202.207 153.544 201.398 156.977C201.38 157.057 201.429 157.135 201.507 157.154C201.522 157.16 201.531 157.163 201.541 157.163Z" fill="#565D70"/>
<path d="M192.402 125.405C192.259 125.277 192.089 125.181 191.915 125.1C191.376 124.843 190.75 124.685 190.183 124.871C190.131 124.886 190.081 124.908 190.041 124.948C190.004 124.986 189.985 125.038 189.976 125.088C189.942 125.284 190.047 125.473 190.162 125.631C190.512 126.106 191.026 126.444 191.587 126.606C191.909 126.699 193.058 126.935 192.922 126.326C192.854 125.988 192.662 125.634 192.402 125.405Z" fill="#565D70"/>
<path d="M194.954 128.841C194.279 128.776 193.597 128.819 192.922 128.872C192.491 128.906 192.06 128.946 191.63 128.99C191.543 128.999 191.438 129.027 191.422 129.111C191.404 129.204 191.515 129.266 191.602 129.306C192.203 129.577 192.572 130.194 193.12 130.56C193.517 130.824 193.991 130.945 194.465 131.01C194.861 131.063 195.264 131.079 195.664 131.057C195.989 131.038 196.327 130.989 196.593 130.803C196.862 130.613 197.027 130.284 197.033 129.955C197.039 129.545 196.72 129.3 196.37 129.167C195.918 128.99 195.434 128.887 194.954 128.841Z" fill="#565D70"/>
<path d="M199.143 134.505C198.467 134.44 197.786 134.484 197.11 134.536C196.68 134.571 196.249 134.611 195.818 134.654C195.732 134.664 195.626 134.692 195.611 134.775C195.592 134.868 195.704 134.931 195.791 134.971C196.392 135.241 196.76 135.859 197.309 136.225C197.705 136.489 198.179 136.61 198.653 136.675C199.05 136.728 199.452 136.743 199.852 136.721C200.177 136.703 200.515 136.653 200.782 136.467C201.051 136.278 201.215 135.949 201.221 135.62C201.228 135.21 200.909 134.965 200.558 134.831C200.103 134.657 199.62 134.552 199.143 134.505Z" fill="#565D70"/>
<path d="M201.373 139.81C200.754 139.537 200.091 139.363 199.434 139.202C199.012 139.099 198.591 139.003 198.17 138.907C198.086 138.888 197.978 138.882 197.934 138.956C197.888 139.04 197.971 139.133 198.043 139.195C198.529 139.642 198.684 140.344 199.09 140.862C199.384 141.238 199.796 141.501 200.224 141.709C200.583 141.883 200.961 142.026 201.348 142.128C201.661 142.212 201.999 142.271 202.312 142.178C202.628 142.082 202.885 141.824 202.997 141.511C203.133 141.126 202.907 140.791 202.615 140.555C202.241 140.254 201.813 140.002 201.373 139.81Z" fill="#565D70"/>
<path d="M201.643 146.321C201.051 145.986 200.413 145.75 199.772 145.524C199.363 145.381 198.954 145.241 198.542 145.108C198.461 145.08 198.353 145.061 198.303 145.133C198.251 145.21 198.325 145.313 198.387 145.384C198.827 145.875 198.914 146.592 199.267 147.147C199.521 147.551 199.908 147.855 200.314 148.103C200.655 148.314 201.017 148.491 201.392 148.631C201.696 148.746 202.024 148.839 202.343 148.773C202.665 148.708 202.95 148.479 203.09 148.178C203.263 147.805 203.071 147.451 202.805 147.187C202.461 146.849 202.061 146.557 201.643 146.321Z" fill="#565D70"/>
<path d="M198.294 129.622C198.294 129.234 198.306 128.843 198.375 128.461C198.427 128.157 198.514 127.856 198.604 127.561C198.892 126.599 199.223 125.603 199.933 124.892C199.955 124.87 199.979 124.845 200.01 124.836C200.088 124.808 200.171 124.87 200.202 124.948C200.233 125.022 200.227 125.109 200.23 125.19C200.237 125.37 200.292 125.544 200.348 125.715C200.494 126.168 200.639 126.624 200.785 127.077C201.005 127.76 201.225 128.452 201.274 129.169C201.324 129.886 201.188 130.64 200.751 131.208C200.605 131.398 200.429 131.565 200.24 131.711C200.06 131.851 199.862 131.978 199.642 132.028C199.344 132.096 199.019 132.012 198.79 131.81C198.526 131.581 198.433 131.205 198.396 130.87C198.344 130.454 198.297 130.038 198.294 129.622Z" fill="#565D70"/>
<path d="M201.931 133.953C202.092 133.599 202.266 133.249 202.486 132.929C202.662 132.675 202.864 132.439 203.068 132.206C203.728 131.449 204.444 130.682 205.382 130.331C205.413 130.319 205.444 130.309 205.475 130.312C205.556 130.319 205.609 130.412 205.605 130.493C205.602 130.573 205.562 130.651 205.531 130.725C205.463 130.893 205.441 131.073 205.42 131.25C205.364 131.725 205.308 132.197 205.252 132.671C205.169 133.385 205.082 134.105 204.831 134.776C204.58 135.449 204.14 136.076 203.508 136.415C203.297 136.526 203.068 136.604 202.833 136.66C202.613 136.713 202.38 136.747 202.157 136.7C201.86 136.638 201.596 136.427 201.469 136.148C201.324 135.828 201.398 135.449 201.5 135.13C201.634 134.729 201.761 134.332 201.931 133.953Z" fill="#565D70"/>
<path d="M205.054 140.25C205.405 140.082 205.764 139.93 206.139 139.828C206.436 139.747 206.743 139.697 207.05 139.651C208.041 139.499 209.082 139.375 210.027 139.713C210.058 139.722 210.089 139.735 210.111 139.76C210.169 139.819 210.148 139.921 210.095 139.983C210.039 140.045 209.962 140.076 209.887 140.113C209.729 140.197 209.596 140.321 209.466 140.442C209.119 140.768 208.772 141.094 208.422 141.42C207.898 141.91 207.369 142.407 206.743 142.758C206.117 143.109 205.38 143.307 204.68 143.155C204.444 143.105 204.221 143.015 204.007 142.907C203.803 142.804 203.608 142.68 203.465 142.5C203.276 142.261 203.214 141.929 203.295 141.634C203.391 141.296 203.688 141.054 203.973 140.874C204.326 140.65 204.676 140.427 205.054 140.25Z" fill="#565D70"/>
<path d="M204.834 146.734C205.185 146.567 205.544 146.415 205.919 146.312C206.216 146.231 206.523 146.182 206.83 146.135C207.821 145.983 208.862 145.859 209.807 146.197C209.838 146.21 209.869 146.219 209.891 146.244C209.949 146.303 209.928 146.405 209.875 146.467C209.819 146.529 209.742 146.561 209.667 146.598C209.509 146.682 209.376 146.806 209.246 146.927C208.899 147.253 208.552 147.579 208.202 147.904C207.679 148.395 207.149 148.891 206.523 149.242C205.897 149.593 205.16 149.792 204.46 149.639C204.224 149.59 204.001 149.5 203.787 149.391C203.583 149.289 203.388 149.165 203.245 148.985C203.056 148.746 202.994 148.413 203.075 148.119C203.171 147.78 203.468 147.538 203.753 147.358C204.103 147.135 204.456 146.914 204.834 146.734Z" fill="#565D70"/>
<path d="M212.418 147.194C212.434 147.085 212.446 146.979 212.452 146.871C212.784 142.035 206.817 144.745 205.308 146.948C205.841 145.912 205.327 144.478 204.261 144.012C203.195 143.55 201.798 144.158 201.408 145.254C201.711 142.789 202.018 140.325 202.322 137.86C202.458 136.759 202.539 135.486 201.752 134.704C200.869 133.832 199.289 134.117 198.415 134.999C197.541 135.88 197.21 137.156 196.99 138.382C195.921 137.249 193.607 138.205 193.647 139.763C193.78 136.603 193.895 133.332 192.705 130.402C191.943 128.524 190.152 126.668 188.188 127.152C186.447 127.58 185.626 129.567 185.298 131.333C184.542 135.405 185.025 139.698 186.67 143.497C186.199 142.401 184.39 142.612 183.776 143.634C183.163 144.658 183.432 145.977 183.891 147.079C182.751 145.915 181.251 145.015 179.625 144.953C177.998 144.891 176.282 145.843 175.793 147.395C175.3 148.95 176.434 150.906 178.06 150.955C177.029 151.077 176.471 152.358 176.734 153.364C178.054 158.408 191.429 159.122 195.456 158.721C201.504 158.116 207.424 155.164 210.999 150.238C211.659 149.326 212.254 148.305 212.418 147.194Z" fill="#F2EDE4"/>
<path d="M195.351 157.75C195.32 157.75 195.289 157.734 195.267 157.706C191.94 153.237 190.304 145.493 189.514 139.788C188.659 133.611 188.591 128.422 188.591 128.369C188.591 128.313 188.637 128.263 188.693 128.263C188.749 128.263 188.795 128.31 188.799 128.366C188.802 128.571 189.115 149.087 195.435 157.582C195.469 157.629 195.459 157.694 195.413 157.728C195.394 157.744 195.373 157.75 195.351 157.75Z" fill="#D9C9AC"/>
<path d="M193.501 156.843C186.091 156.843 178.89 152.575 178.816 152.532C178.767 152.504 178.751 152.438 178.779 152.389C178.81 152.339 178.872 152.324 178.921 152.352C179.002 152.398 186.942 157.104 194.691 156.595C194.747 156.595 194.796 156.635 194.802 156.691C194.805 156.747 194.762 156.796 194.706 156.802C194.307 156.83 193.904 156.843 193.501 156.843Z" fill="#D9C9AC"/>
<path d="M192.616 152.545C192.579 152.545 192.541 152.523 192.523 152.486C192.498 152.433 192.52 152.371 192.569 152.346C200.082 148.597 200.361 135.651 200.361 135.52C200.361 135.464 200.411 135.418 200.466 135.418C200.522 135.418 200.569 135.464 200.569 135.523C200.565 135.654 200.287 148.724 192.662 152.532C192.647 152.542 192.631 152.545 192.616 152.545Z" fill="#D9C9AC"/>
<path d="M193.067 154.115C184.089 154.115 178.119 147.129 178.06 147.057C178.023 147.014 178.029 146.949 178.072 146.911C178.116 146.874 178.181 146.88 178.218 146.924C178.277 146.995 184.284 154.013 193.266 153.904C193.321 153.904 193.368 153.951 193.371 154.007C193.371 154.063 193.324 154.112 193.269 154.112C193.201 154.115 193.135 154.115 193.067 154.115Z" fill="#D9C9AC"/>
<path d="M191.73 149.959C191.72 149.959 191.714 149.959 191.705 149.956C186.382 148.671 185.146 144.056 185.134 144.012C185.118 143.956 185.152 143.901 185.208 143.885C185.264 143.87 185.32 143.904 185.335 143.96C185.347 144.006 186.556 148.497 191.754 149.754C191.81 149.767 191.844 149.823 191.832 149.879C191.819 149.925 191.779 149.959 191.73 149.959Z" fill="#D9C9AC"/>
<path d="M191.258 148.305C191.221 148.305 191.184 148.283 191.165 148.246C191.14 148.193 191.162 148.131 191.211 148.106C194.105 146.669 195.741 138.996 195.756 138.919C195.769 138.863 195.825 138.825 195.88 138.838C195.936 138.85 195.973 138.906 195.961 138.962C195.893 139.282 194.288 146.808 191.304 148.292C191.289 148.301 191.273 148.305 191.258 148.305Z" fill="#D9C9AC"/>
<path d="M189.455 138.654C189.433 138.654 189.412 138.648 189.39 138.633C187.305 137.016 186.41 132.484 186.372 132.292C186.36 132.236 186.397 132.18 186.456 132.17C186.512 132.158 186.568 132.195 186.577 132.254C186.586 132.301 187.494 136.901 189.517 138.468C189.563 138.502 189.57 138.567 189.536 138.614C189.517 138.642 189.486 138.654 189.455 138.654Z" fill="#D9C9AC"/>
<path d="M190.125 143.112C190.109 143.112 190.094 143.109 190.078 143.103C190.025 143.078 190.004 143.016 190.029 142.963C190.053 142.91 192.553 137.659 191.915 133.673C191.906 133.617 191.946 133.565 192.002 133.555C192.058 133.546 192.114 133.583 192.12 133.642C192.767 137.693 190.239 143.003 190.214 143.056C190.202 143.09 190.165 143.112 190.125 143.112Z" fill="#D9C9AC"/>
<path d="M194.071 144.611C194.034 144.611 193.997 144.589 193.979 144.552C193.941 144.478 193.071 142.687 193.021 140.977C193.018 140.921 193.065 140.871 193.123 140.871C193.182 140.871 193.229 140.914 193.229 140.973C193.275 142.64 194.155 144.447 194.164 144.465C194.189 144.518 194.168 144.58 194.118 144.605C194.102 144.608 194.087 144.611 194.071 144.611Z" fill="#D9C9AC"/>
<path d="M186.444 148.479C185.933 148.479 185.353 148.435 184.771 148.299C184.715 148.286 184.681 148.23 184.694 148.175C184.706 148.119 184.765 148.085 184.817 148.097C186.481 148.482 188.166 148.1 188.185 148.097C188.241 148.085 188.297 148.119 188.309 148.175C188.321 148.23 188.287 148.286 188.232 148.299C188.185 148.311 187.438 148.479 186.444 148.479Z" fill="#D9C9AC"/>
<path d="M185.703 152.544C185.66 152.544 185.619 152.519 185.604 152.476C185.595 152.454 184.774 150.198 184.058 149.08C184.027 149.031 184.039 148.969 184.089 148.938C184.139 148.907 184.201 148.922 184.232 148.969C184.96 150.105 185.765 152.312 185.799 152.405C185.818 152.457 185.79 152.519 185.737 152.538C185.728 152.544 185.716 152.544 185.703 152.544Z" fill="#D9C9AC"/>
<path d="M182.293 154.245C182.262 154.245 182.231 154.23 182.209 154.205C182.175 154.158 182.181 154.093 182.227 154.059C182.231 154.056 182.633 153.736 182.692 153.205C182.736 152.802 182.574 152.377 182.212 151.939C182.175 151.896 182.181 151.83 182.224 151.793C182.268 151.756 182.333 151.762 182.37 151.806C182.77 152.287 182.949 152.768 182.897 153.23C182.829 153.851 182.373 154.208 182.354 154.223C182.339 154.239 182.314 154.245 182.293 154.245Z" fill="#D9C9AC"/>
<path d="M178.729 149.493C178.271 149.493 177.744 149.4 177.199 149.118C177.149 149.09 177.128 149.028 177.156 148.978C177.183 148.929 177.245 148.907 177.295 148.935C178.798 149.714 180.189 148.944 180.204 148.938C180.254 148.91 180.319 148.929 180.347 148.978C180.375 149.028 180.356 149.093 180.306 149.121C180.266 149.14 179.622 149.493 178.729 149.493Z" fill="#D9C9AC"/>
<path d="M197.563 147.432C197.526 147.432 197.489 147.411 197.47 147.373C197.458 147.349 196.256 144.859 196.851 142.333C196.863 142.277 196.922 142.243 196.975 142.255C197.031 142.268 197.065 142.324 197.052 142.379C196.476 144.838 197.644 147.259 197.656 147.283C197.681 147.336 197.659 147.398 197.61 147.423C197.594 147.429 197.579 147.432 197.563 147.432Z" fill="#D9C9AC"/>
<path d="M193.904 155.425C193.864 155.425 193.827 155.403 193.811 155.366C193.787 155.313 193.808 155.251 193.861 155.229C193.929 155.198 200.571 152.048 203.53 145.974C203.555 145.921 203.617 145.899 203.669 145.927C203.722 145.952 203.744 146.014 203.716 146.067C200.726 152.209 194.016 155.388 193.948 155.422C193.935 155.422 193.92 155.425 193.904 155.425Z" fill="#D9C9AC"/>
<path d="M195.022 157.29C194.973 157.29 194.929 157.253 194.92 157.203C194.911 157.147 194.951 157.094 195.007 157.085C201.389 156.073 210.606 146.048 210.699 145.949C210.736 145.905 210.804 145.902 210.844 145.942C210.888 145.98 210.891 146.048 210.851 146.088C210.758 146.191 201.491 156.269 195.038 157.29C195.032 157.29 195.028 157.29 195.022 157.29Z" fill="#D9C9AC"/>
<path d="M199.307 151.707C199.252 151.707 199.205 151.663 199.202 151.604C199.202 151.583 199.149 149.413 199.958 147.29C199.98 147.237 200.039 147.209 200.091 147.231C200.144 147.253 200.172 147.312 200.15 147.365C199.354 149.447 199.407 151.576 199.407 151.598C199.413 151.657 199.369 151.704 199.307 151.707C199.311 151.707 199.311 151.707 199.307 151.707Z" fill="#D9C9AC"/>
<path d="M202.028 150.099C201.417 150.099 201.033 149.962 200.999 149.95C200.946 149.931 200.919 149.869 200.937 149.816C200.956 149.764 201.015 149.736 201.07 149.754C201.089 149.761 202.784 150.35 204.804 148.938C204.85 148.904 204.915 148.916 204.949 148.963C204.983 149.009 204.971 149.075 204.924 149.109C203.781 149.91 202.746 150.099 202.028 150.099Z" fill="#D9C9AC"/>
<path d="M204.181 153.675C203.27 153.675 202.848 153.271 202.824 153.246C202.783 153.206 202.783 153.141 202.824 153.097C202.864 153.057 202.929 153.057 202.969 153.097C202.979 153.107 203.852 153.926 205.86 153.076C205.912 153.051 205.974 153.079 205.996 153.131C206.018 153.184 205.993 153.246 205.94 153.268C205.225 153.572 204.639 153.675 204.181 153.675Z" fill="#D9C9AC"/>
<path d="M198.765 155.94C198.71 155.94 198.663 155.893 198.66 155.837C198.66 155.778 198.645 154.406 199.602 153.298C199.639 153.255 199.704 153.252 199.748 153.289C199.791 153.326 199.797 153.392 199.757 153.435C198.852 154.481 198.865 155.819 198.865 155.834C198.871 155.893 198.824 155.94 198.765 155.94Z" fill="#D9C9AC"/>
<path d="M186.075 108.955C187.256 108.955 187.256 107.117 186.075 107.117C184.895 107.12 184.895 108.955 186.075 108.955Z" fill="#8E97FD"/>
<path d="M207.548 77.0191C208.728 77.0191 208.728 75.1816 207.548 75.1816C206.368 75.1816 206.365 77.0191 207.548 77.0191Z" fill="#8E97FD"/>
<path d="M252.071 95.3656C252.66 95.3656 252.663 94.4469 252.071 94.4469C251.482 94.4469 251.479 95.3656 252.071 95.3656Z" fill="#8E97FD"/>
<path d="M202.817 88.1402C203.406 88.1402 203.409 87.2214 202.817 87.2214C202.229 87.2214 202.229 88.1402 202.817 88.1402Z" fill="#8E97FD"/>
<path d="M260.895 94.4473C261.483 94.4473 261.486 93.5286 260.895 93.5286C260.303 93.5286 260.303 94.4473 260.895 94.4473Z" fill="#8E97FD"/>
<path d="M281.754 117.149C282.343 117.149 282.346 116.23 281.754 116.23C281.163 116.23 281.163 117.149 281.754 117.149Z" fill="white"/>
<path d="M201.396 79.9955C201.984 79.9955 201.987 79.0768 201.396 79.0768C200.807 79.0768 200.804 79.9955 201.396 79.9955Z" fill="#59D6B8"/>
<path d="M223.414 56.9187C224.002 56.9187 224.005 56 223.414 56C222.825 56 222.825 56.9187 223.414 56.9187Z" fill="#59D6B8"/>
<path d="M231.242 64.1418C231.831 64.1418 231.834 63.223 231.242 63.223C230.65 63.223 230.65 64.1418 231.242 64.1418Z" fill="#59D6B8"/>
<path d="M237.454 146.731C238.043 146.731 238.046 145.813 237.454 145.813C236.866 145.813 236.866 146.731 237.454 146.731Z" fill="#59D6B8"/>
<path d="M270.526 112.108C271.115 112.108 271.118 111.189 270.526 111.189C269.935 111.189 269.935 112.108 270.526 112.108Z" fill="#59D6B8"/>
<path d="M180.254 90.0955C180.843 90.0955 180.846 89.1768 180.254 89.1768C179.665 89.1768 179.665 90.0955 180.254 90.0955Z" fill="#59D6B8"/>
<path d="M278.179 103.594C278.768 103.594 278.771 102.676 278.179 102.676C277.59 102.676 277.587 103.594 278.179 103.594Z" fill="#59D6B8"/>
<path d="M170.433 124.647C171.021 124.647 171.024 123.729 170.433 123.729C169.841 123.729 169.841 124.647 170.433 124.647Z" fill="#8ABFA3"/>
<path d="M249.965 74.2753C250.553 74.2753 250.557 73.3566 249.965 73.3566C249.376 73.3566 249.376 74.2753 249.965 74.2753Z" fill="#8E97FD"/>
<path d="M266.474 141.808C267.063 141.808 267.066 140.89 266.474 140.89C265.885 140.89 265.885 141.808 266.474 141.808Z" fill="white"/>
<path d="M171.347 114.895C171.347 114.855 171.347 114.815 171.347 114.774C171.347 114.293 170.926 113.834 170.43 113.856C169.934 113.877 169.513 114.259 169.513 114.774C169.513 114.815 169.513 114.855 169.513 114.895C169.513 115.376 169.934 115.836 170.43 115.814C170.929 115.789 171.347 115.408 171.347 114.895Z" fill="#8E97FD"/>
<path d="M272.237 139.81C272.9 139.81 272.9 138.776 272.237 138.776C271.574 138.779 271.574 139.81 272.237 139.81Z" fill="#8E6DAA"/>
<path d="M280.425 113.486C281.605 113.486 281.605 111.648 280.425 111.648C279.245 111.648 279.245 113.486 280.425 113.486Z" fill="#8E6DAA"/>
<path d="M241.928 73.8161C243.108 73.8161 243.108 71.9786 241.928 71.9786C240.748 71.9786 240.744 73.8161 241.928 73.8161Z" fill="#8E97FD"/>
<path d="M181.809 139.813C182.99 139.813 182.99 137.975 181.809 137.975C180.629 137.975 180.629 139.813 181.809 139.813Z" fill="#E9F2DE"/>
</g>
<defs>
<linearGradient id="paint0_linear" x1="0" y1="175" x2="266.7" y2="-41.0981" gradientUnits="userSpaceOnUse">
<stop stop-color="#441DFC"/>
<stop offset="1" stop-color="#4E81EB"/>
</linearGradient>
<clipPath id="clip0">
<rect width="300" height="175" fill="white"/>
</clipPath>
</defs>
</svg>
