<svg width="111" height="67" viewBox="0 0 111 67" fill="none" xmlns="http://www.w3.org/2000/svg">
<path d="M104.134 14.5038L103.089 16.8651L105.036 18.562L102.674 17.5174L100.977 19.4635L102.022 17.1022L100.076 15.4054L102.437 16.4499L104.134 14.5038Z" fill="#FAFAFA"/>
<path opacity="0.7" d="M36.2954 54.615L35.3643 52.2067L32.7884 52.383L35.1967 51.4519L35.0204 48.8759L35.9515 51.2842L38.5274 51.108L36.1192 52.039L36.2954 54.615Z" fill="#FAFAFA"/>
<path d="M107.484 63.5194L108.363 64.5725L109.629 64.0445L108.576 64.9237L109.104 66.1899L108.225 65.1368L106.959 65.6648L108.012 64.7856L107.484 63.5194Z" fill="#FAFAFA"/>
<path d="M65.4614 2.25971L64.095 2.13679L63.573 3.40547L63.696 2.03912L62.4273 1.51715L63.7936 1.64008L64.3156 0.371396L64.1927 1.73774L65.4614 2.25971Z" fill="#FAFAFA"/>
<path opacity="0.5" d="M79.2764 36.8095L81.1662 36.9211L81.8324 35.149L81.7208 37.0389L83.4929 37.705L81.603 37.5934L80.9369 39.3655L81.0485 37.4756L79.2764 36.8095Z" fill="#FAFAFA"/>
<path opacity="0.3" d="M33.2042 22.0571L31.7889 23.3146L32.5709 25.0386L31.3135 23.6234L29.5894 24.4054L31.0047 23.148L30.2227 21.4239L31.4801 22.8391L33.2042 22.0571Z" fill="#FAFAFA"/>
<path d="M2.62291 44.3539L2.30253 45.6878L3.48178 46.3888L2.14785 46.0684L1.44687 47.2477L1.76726 45.9137L0.588007 45.2128L1.92193 45.5331L2.62291 44.3539Z" fill="#FAFAFA"/>
</svg>
