<svg width="18" height="18" viewBox="0 0 18 18" fill="none" xmlns="http://www.w3.org/2000/svg">
<path fill-rule="evenodd" clip-rule="evenodd" d="M9.00005 14.4C8.75152 14.4 8.55005 14.6015 8.55005 14.85L8.55005 17.55C8.55005 17.7985 8.75152 18 9.00005 18C9.24858 18 9.45005 17.7985 9.45005 17.55L9.45005 14.85C9.45005 14.6015 9.24858 14.4 9.00005 14.4ZM13.5 9.00009C13.5 11.4854 11.4853 13.5001 8.99997 13.5001C6.51469 13.5001 4.49997 11.4854 4.49997 9.00009C4.49997 6.5148 6.51469 4.50008 8.99997 4.50008C11.4853 4.50008 13.5 6.5148 13.5 9.00009ZM8.55005 0.449964C8.55005 0.201434 8.75152 -3.71394e-05 9.00005 -3.71611e-05C9.24858 -3.71828e-05 9.45005 0.201434 9.45005 0.449964L9.45005 3.14997C9.45005 3.39849 9.24858 3.59997 9.00005 3.59997C8.75152 3.59997 8.55005 3.39849 8.55005 3.14997L8.55005 0.449964ZM0.449983 9.44991C0.201453 9.44991 -1.81893e-05 9.24843 -1.8211e-05 8.99991C-1.82328e-05 8.75138 0.201453 8.54991 0.449983 8.54991L3.14999 8.54991C3.39851 8.54991 3.59999 8.75138 3.59999 8.99991C3.59999 9.24843 3.39851 9.44991 3.14999 9.44991L0.449983 9.44991ZM14.3998 8.99991C14.3998 9.24843 14.6013 9.44991 14.8498 9.44991L17.5498 9.44991C17.7983 9.44991 17.9998 9.24843 17.9998 8.9999C17.9998 8.75138 17.7983 8.54991 17.5498 8.54991L14.8498 8.54991C14.6013 8.54991 14.3998 8.75138 14.3998 8.99991ZM3.9091 14.7277C3.73336 14.9034 3.44844 14.9034 3.2727 14.7277C3.09697 14.5519 3.09697 14.267 3.2727 14.0913L4.5455 12.8185C4.72123 12.6427 5.00616 12.6427 5.18189 12.8185C5.35763 12.9942 5.35763 13.2791 5.18189 13.4549L3.9091 14.7277ZM12.8184 5.18144C12.9942 5.35717 13.2791 5.35717 13.4548 5.18144L14.7276 3.90864C14.9034 3.73291 14.9034 3.44798 14.7276 3.27225C14.5519 3.09651 14.267 3.09651 14.0912 3.27225L12.8184 4.54504C12.6427 4.72078 12.6427 5.0057 12.8184 5.18144ZM14.7278 14.0913C14.9035 14.267 14.9035 14.5519 14.7278 14.7277C14.552 14.9034 14.2671 14.9034 14.0914 14.7277L12.8186 13.4549C12.6428 13.2791 12.6429 12.9942 12.8186 12.8185C12.9943 12.6427 13.2792 12.6427 13.455 12.8185L14.7278 14.0913ZM5.18202 5.18169C5.35776 5.00596 5.35776 4.72103 5.18202 4.5453L3.90923 3.2725C3.73349 3.09677 3.44857 3.09677 3.27283 3.2725C3.09709 3.44824 3.09709 3.73316 3.27283 3.9089L4.54562 5.18169C4.72136 5.35743 5.00628 5.35743 5.18202 5.18169Z" fill="#F8F8F8"/>
</svg>
