<svg width="500" height="412" viewBox="0 0 500 412" fill="none" xmlns="http://www.w3.org/2000/svg">
<path d="M50.8965 401.416L41.1397 397.622C39.887 400.843 40.3047 404.474 42.256 407.327C44.2072 410.179 47.4405 411.885 50.8965 411.885V401.416ZM223.113 401.416V411.885H233.582V401.416H223.113ZM308.369 354.861L308.081 365.326L310.061 365.38L311.924 364.708L308.369 354.861ZM313.485 322.696L303.06 323.65L303.118 324.283L303.252 324.904L313.485 322.696ZM312.632 313.385L305.256 305.956L301.757 309.429L302.207 314.339L312.632 313.385ZM323.715 302.381L331.091 309.81L332.621 308.291L333.426 306.293L323.715 302.381ZM316.895 285.451L317.414 274.995L314.686 274.86L312.24 276.074L316.895 285.451ZM321.158 267.676L312.528 273.602L321.158 267.676ZM343.324 240.589L348.223 249.841L348.302 249.799L348.38 249.756L343.324 240.589ZM339.914 219.428L347.998 212.776L339.914 219.428ZM178.78 12.0449L177.422 22.4252L177.545 22.4412L177.667 22.4543L178.78 12.0449ZM27.0249 77.2223L17.2719 73.4178L17.1923 73.622L17.1212 73.8293L27.0249 77.2223ZM56.0118 294.762L47.8907 301.369L47.8907 301.369L56.0118 294.762ZM50.8965 411.885H223.113V390.948H50.8965V411.885ZM233.582 401.416V385.334H212.645V401.416H233.582ZM233.582 385.334C233.582 382.323 234.547 377.4 237.252 373.387C239.643 369.837 243.582 366.619 251.044 366.156L249.747 345.259C235.384 346.15 225.681 353.09 219.888 361.687C214.408 369.82 212.645 379.033 212.645 385.334H233.582ZM251.044 366.156C272.436 364.829 298.011 365.048 308.081 365.326L308.658 344.396C298.267 344.11 272.006 343.878 249.747 345.259L251.044 366.156ZM311.924 364.708C314.79 363.673 318.601 361.562 321.747 358.159C325.07 354.565 328.024 349.04 327.311 341.962L306.479 344.06C306.481 344.076 306.475 344.034 306.487 343.953C306.498 343.874 306.518 343.804 306.538 343.754C306.574 343.661 306.568 343.735 306.373 343.945C306.173 344.162 305.873 344.414 305.502 344.65C305.325 344.762 305.161 344.852 305.025 344.919C304.885 344.988 304.809 345.016 304.814 345.014L311.924 364.708ZM327.311 341.962C326.568 334.586 324.59 324.526 323.718 320.487L303.252 324.904C304.085 328.765 305.858 337.892 306.479 344.06L327.311 341.962ZM323.91 321.741L323.057 312.43L302.207 314.339L303.06 323.65L323.91 321.741ZM320.008 320.814L331.091 309.81L316.34 294.952L305.256 305.956L320.008 320.814ZM333.426 306.293C334.583 303.421 335.562 298.809 334.261 293.9C332.738 288.154 328.417 283.377 321.588 281.343L315.612 301.41C315.86 301.484 315.481 301.416 314.959 300.883C314.434 300.348 314.146 299.731 314.022 299.265C313.966 299.053 313.949 298.894 313.944 298.803C313.939 298.713 313.943 298.663 313.944 298.653C313.946 298.642 313.946 298.639 313.948 298.632C313.949 298.628 313.962 298.576 314.005 298.468L333.426 306.293ZM321.588 281.343C320.464 281.008 320.981 280.975 321.944 281.799C323.255 282.922 325.216 285.623 324.718 289.433C324.332 292.378 322.682 293.944 322.404 294.204C321.946 294.634 321.628 294.79 321.55 294.828L312.24 276.074C311.025 276.677 309.499 277.602 308.082 278.931C306.845 280.091 304.484 282.687 303.957 286.718C303.316 291.614 305.703 295.458 308.329 297.705C310.607 299.655 313.326 300.729 315.612 301.41L321.588 281.343ZM316.376 295.907C318.78 296.027 321.745 295.809 324.714 294.818C327.688 293.824 331.384 291.789 333.874 287.801C339.167 279.324 335.165 269.581 329.788 261.749L312.528 273.602C314.671 276.722 315.255 278.446 315.382 279.022C315.466 279.408 315.155 278.248 316.114 276.711C316.971 275.34 318.037 274.973 318.081 274.958C318.12 274.946 317.852 275.017 317.414 274.995L316.376 295.907ZM348.38 249.756C351.813 247.862 353.746 244.746 354.759 242.409C355.903 239.77 356.495 236.744 356.468 233.548C356.412 227.022 353.805 219.833 347.998 212.776L331.83 226.079C335.146 230.109 335.523 232.797 335.531 233.727C335.536 234.258 335.43 234.356 335.548 234.085C335.605 233.952 335.759 233.632 336.095 233.21C336.396 232.832 337.075 232.08 338.268 231.422L348.38 249.756ZM347.998 212.776C341.246 204.57 333.678 196.112 327.558 187.912C324.554 183.887 322.284 180.414 320.889 177.605C319.3 174.407 319.693 173.731 319.546 174.605L298.898 171.139C297.898 177.092 300.115 182.847 302.137 186.919C304.354 191.382 307.483 196.02 310.779 200.435C317.258 209.118 325.889 218.858 331.83 226.079L347.998 212.776ZM319.546 174.605C320.273 170.276 329.938 131.709 316.931 92.0527C310.328 71.9209 297.902 51.4333 275.819 34.8701C253.811 18.3629 222.849 6.22843 179.893 1.63551L177.667 22.4543C217.836 26.7492 244.954 37.8924 263.256 51.6197C281.484 65.291 291.597 81.9947 297.037 98.5781C308.114 132.352 299.876 165.311 298.898 171.139L319.546 174.605ZM180.138 1.66465C160.75 -0.872094 127.802 -1.21554 96.0024 7.85383C64.1455 16.9394 31.8653 36.007 17.2719 73.4178L36.7779 81.0268C48.1004 52.001 73.3679 36.0816 101.745 27.9885C130.179 19.8791 160.15 20.1653 177.422 22.4252L180.138 1.66465ZM47.8907 301.369C55.2984 310.475 57.306 326.201 54.9167 345.583C52.6017 364.364 46.503 383.832 41.1397 397.622L60.6534 405.211C66.3734 390.504 73.0941 369.26 75.6969 348.145C78.2254 327.633 77.2491 304.28 64.133 288.156L47.8907 301.369ZM329.788 261.749C327.629 258.607 328.401 258.059 328.17 259.07C327.979 259.903 327.586 259.55 329.479 258.282C331.334 257.039 333.984 255.845 337.525 254.426C340.583 253.202 344.904 251.598 348.223 249.841L338.425 231.337C336.399 232.41 333.75 233.384 329.741 234.99C326.215 236.402 321.701 238.29 317.824 240.888C313.985 243.46 309.291 247.706 307.76 254.401C306.188 261.274 308.579 267.851 312.528 273.602L329.788 261.749ZM17.1212 73.8293C-8.24011 147.856 -9.24133 231.135 47.8907 301.369L64.133 288.156C13.0641 225.376 13.0152 150.415 36.9285 80.6153L17.1212 73.8293Z" fill="#2C98F0"/>
<path d="M223.734 194.42C214.169 211.152 219.912 232.585 236.561 242.292C253.21 252 274.46 246.306 284.026 229.574C293.591 212.843 287.848 191.41 271.199 181.703C254.55 171.995 233.299 177.689 223.734 194.42Z" fill="#F9A7A7"/>
<path d="M368.254 282.977C370.412 279.972 374.35 278.759 377.963 280.275L427.479 301.044L425.776 284.583C425.475 281.669 426.587 278.835 428.727 277.042C430.874 275.242 433.78 274.706 436.475 275.615L489.894 293.592C494.364 295.097 496.947 300.049 495.662 304.658C494.383 309.259 489.713 311.778 485.242 310.273L443.871 296.351L445.683 313.88C445.997 316.906 444.793 319.828 442.496 321.613C440.201 323.394 437.143 323.779 434.409 322.634L372.16 296.524C367.795 294.692 365.553 289.571 367.156 285.084C367.431 284.308 367.805 283.604 368.254 282.977Z" fill="#F9A7A7"/>
<path d="M340.737 283.542C340.372 280.033 342.182 276.294 345.368 274.504L389.021 249.952L378.39 240.973C376.507 239.384 375.575 236.773 375.901 234.033C376.227 231.283 377.772 228.749 380.019 227.273L424.546 198.026C428.272 195.579 432.793 196.712 434.644 200.559C436.496 204.399 434.975 209.508 431.249 211.954L396.764 234.606L408.087 244.167C410.041 245.817 410.968 248.552 410.536 251.404C410.105 254.254 408.375 256.81 405.966 258.167L351.087 289.032C347.237 291.197 342.836 289.7 341.258 285.686C340.984 284.996 340.813 284.274 340.737 283.542V283.542Z" fill="#F9A7A7"/>
</svg>
