<svg width="40" height="40" viewBox="0 0 40 40" fill="none" xmlns="http://www.w3.org/2000/svg">
<g clip-path="url(#clip0)">
<path d="M19.9758 1.3244C19.2566 1.31894 18.5413 1.38064 17.8259 1.44616C17.3899 1.48602 17.0782 1.25834 17.0403 0.879418C16.9981 0.455726 17.25 0.165257 17.7029 0.119394C23.6341 -0.47574 28.8774 1.14859 33.3375 5.11415C36.9344 8.31204 39.0633 12.3475 39.7865 17.1075C41.2596 26.8005 35.2682 36.2697 25.87 39.1247C15.1433 42.3832 3.87019 36.2588 0.776816 25.4901C0.0396989 22.9234 -0.155037 20.3108 0.141319 17.6595C0.186912 17.2521 0.490708 17.0021 0.889625 17.0414C1.26344 17.078 1.507 17.3816 1.46686 17.7932C1.35622 18.9267 1.31106 20.0591 1.38705 21.1986C1.60399 24.45 2.57329 27.4573 4.37512 30.1693C7.34085 34.6328 11.4662 37.4217 16.7408 38.363C26.449 40.0955 35.4945 34.083 37.9937 24.9376C40.6884 15.0769 34.9853 4.91322 25.1925 2.06204C23.4891 1.56628 21.7482 1.32932 19.9758 1.3244Z" fill="#54BDB0"/>
<path d="M11.5868 3.65943C11.5856 4.16055 11.4218 4.60279 11.075 4.96348C9.10476 7.00908 7.13608 9.05622 5.15464 11.091C4.40646 11.8594 3.23061 11.86 2.47979 11.1283C1.73322 10.4007 1.70883 9.21319 2.444 8.44871C4.40033 6.41382 6.36251 4.38406 8.3263 2.35688C8.8771 1.7881 9.7028 1.62514 10.4204 1.92175C11.1232 2.21129 11.5894 2.90564 11.5868 3.65943Z" fill="#54BDB0"/>
<path d="M14.24 27.0497C14.048 27.0497 13.856 26.9742 13.709 26.8249C11.963 25.03 11 22.6471 11 20.1118C11 17.5765 11.963 15.1936 13.7105 13.4003C14.003 13.1001 14.4785 13.1001 14.771 13.4003C15.0635 13.7005 15.0635 14.1884 14.771 14.4886C13.3055 15.991 12.5 17.9875 12.5 20.1118C12.5 22.2361 13.3055 24.2327 14.771 25.7351C15.0635 26.0352 15.0635 26.5232 14.771 26.8234C14.624 26.9742 14.432 27.0497 14.24 27.0497V27.0497Z" fill="#8CE1EB"/>
<path d="M12.1205 29.2247C11.9285 29.2247 11.7365 29.1492 11.5895 28.9999C9.27499 26.6232 8 23.4675 8 20.1118C8 16.756 9.27499 13.6003 11.5895 11.2251C11.882 10.925 12.3575 10.925 12.65 11.2251C12.9425 11.5253 12.9425 12.0133 12.65 12.3134C10.619 14.3977 9.49999 17.167 9.49999 20.1118C9.49999 23.0565 10.619 25.8258 12.65 27.9101C12.9425 28.2102 12.9425 28.6982 12.65 28.9984C12.5045 29.1492 12.3125 29.2247 12.1205 29.2247V29.2247Z" fill="#8CE1EB"/>
<path d="M27.8793 29.2247C27.6873 29.2247 27.4953 29.1492 27.3483 28.9999C27.0558 28.6998 27.0558 28.2118 27.3483 27.9116C29.3808 25.8258 30.4998 23.0565 30.4998 20.1118C30.4998 17.167 29.3808 14.3977 27.3498 12.3134C27.0573 12.0133 27.0573 11.5253 27.3498 11.2251C27.6423 10.925 28.1178 10.925 28.4103 11.2251C30.7248 13.6003 31.9997 16.756 31.9997 20.1118C31.9997 23.4675 30.7248 26.6232 28.4103 28.9984C28.2633 29.1492 28.0713 29.2247 27.8793 29.2247V29.2247Z" fill="#8CE1EB"/>
<path d="M25.7596 27.0497C25.5676 27.0497 25.3756 26.9742 25.2287 26.8249C24.9362 26.5247 24.9362 26.0368 25.2287 25.7366C26.6941 24.2327 27.4996 22.2361 27.4996 20.1118C27.4996 17.9875 26.6941 15.991 25.2287 14.4886C24.9362 14.1884 24.9362 13.7005 25.2287 13.4003C25.5211 13.1001 25.9966 13.1001 26.2891 13.4003C28.0366 15.1936 28.9996 17.5765 28.9996 20.1118C28.9996 22.6471 28.0366 25.03 26.2891 26.8234C26.1436 26.9742 25.9516 27.0497 25.7596 27.0497V27.0497Z" fill="#8CE1EB"/>
<path d="M17.8953 28.421C17.7861 28.421 17.6738 28.3979 17.5692 28.3487C17.2369 28.1917 17.0599 27.8238 17.1492 27.4666L18.6322 21.494H15.7692C15.4815 21.494 15.2184 21.3339 15.0861 21.0784C14.9538 20.8228 14.9753 20.515 15.1415 20.2794L20.7661 12.3257C20.9707 12.0363 21.3461 11.9239 21.6738 12.0532C22.003 12.181 22.203 12.5165 22.1584 12.8675L21.5169 17.9012H24.4892C24.7784 17.9012 25.0445 18.0643 25.1753 18.3229C25.3061 18.5816 25.2815 18.8925 25.1092 19.1265L18.5169 28.1055C18.3676 28.3102 18.1353 28.421 17.8953 28.421Z" fill="#FFD60A"/>
</g>
<defs>
<clipPath id="clip0">
<rect width="40" height="40" fill="white"/>
</clipPath>
</defs>
</svg>
