<svg width="24" height="31" viewBox="0 0 24 31" fill="none" xmlns="http://www.w3.org/2000/svg">
<path fill-rule="evenodd" clip-rule="evenodd" d="M2.16515 28.6269H1.17845C0.519641 28.6269 3.53844e-05 29.1533 7.05096e-05 29.7944C7.05096e-05 30.4732 0.519679 31 1.17849 31H22.8212C23.4727 31 24 30.4732 24 29.7944C24 29.1533 23.4727 28.6269 22.8212 28.6269H21.8272C21.6822 25.6484 21.0581 22.7751 19.6467 20.1463C18.4076 17.9948 16.7771 16.5909 15.0483 15.7327C16.7771 14.863 18.4076 13.4743 19.6467 11.3228L19.6693 11.2843C20.8894 9.14057 21.7103 6.24512 21.8498 2.36901H22.8211C23.4727 2.36901 24 1.84631 24 1.18267C24 0.526399 23.4727 0 22.8211 0H1.17842C0.519607 0 0 0.526399 0 1.18267C0 1.84635 0.519607 2.36901 1.17842 2.36901H2.14654C2.27436 6.24512 3.11062 9.14057 4.33066 11.2843L4.34562 11.3228C5.58105 13.4743 7.21928 14.863 8.94 15.7327C7.21928 16.5909 5.58105 17.9948 4.34562 20.1463L4.33066 20.1885C3.15189 22.2445 2.33864 24.9875 2.16515 28.6269ZM18.4489 20.9094C19.0364 21.9242 19.5185 23.1412 19.8727 24.5984L20.1537 26.1284L19.9078 25.7014C18.9655 24.7738 18.0837 24.1981 17.0217 23.5725C15.4777 22.6758 13.738 22.2183 12.0093 22.2183C10.2619 22.2183 8.52222 22.6758 6.98549 23.5647C5.90093 24.1981 4.92961 25.0604 4.12725 26.1284C4.21286 25.7768 4.30613 25.3459 4.40683 24.8806C4.7181 23.4425 5.10041 21.6761 5.54708 20.9094L5.56566 20.8562C6.97822 18.3839 9.00786 17.0641 11.0452 16.4192C11.3065 16.3116 11.4618 16.1435 11.5499 15.8626V15.6105C11.4634 15.3329 11.3373 15.1483 11.0452 15.0497C9.00786 14.4242 6.97822 13.085 5.56566 10.5976L5.54708 10.5788C4.42855 8.62555 3.67557 5.95869 3.55871 2.36894H20.4413C20.3058 5.95869 19.5524 8.62555 18.4489 10.5788L18.4339 10.5976C17.1826 12.7899 15.123 14.1845 12.8343 15.0915C12.5567 15.2715 12.4038 15.502 12.4501 15.8626C12.4501 16.145 12.7118 16.3098 12.9358 16.4192C14.9921 17.0641 17.0141 18.3839 18.4339 20.8562L18.4489 20.9094ZM16.6855 25.0256C18.262 25.9429 19.3226 26.5601 20.2718 28.7692L3.72812 28.6269C5.40907 26.2154 5.90097 25.8576 7.68596 24.8085C9.0079 24.0301 10.4953 23.6409 12.0093 23.6409C13.5044 23.6409 14.9994 24.0301 16.3137 24.8085C16.4408 24.8832 16.5647 24.9553 16.6855 25.0256ZM10.7883 19.1819C10.7883 19.8992 11.3308 20.4807 12.0001 20.4807C12.6694 20.4807 13.2119 19.8992 13.2119 19.1819C13.2119 18.4647 12.6694 16.9581 12.0001 16.9581C11.3308 16.9581 10.7883 18.4647 10.7883 19.1819Z" fill="#0083F5"/>
<path fill-rule="evenodd" clip-rule="evenodd" d="M7.19607 8.03526C7.04223 7.65067 6.60576 7.46361 6.22117 7.61744C5.83658 7.77128 5.64952 8.20775 5.80335 8.59234C6.16283 9.49103 6.88085 10.8217 7.89335 11.9417C8.8961 13.051 10.2911 14.0638 11.9997 14.0638C13.7083 14.0638 15.1033 13.051 16.1061 11.9417C17.1186 10.8217 17.8366 9.49103 18.1961 8.59234C18.3499 8.20775 18.1628 7.77128 17.7783 7.61744C17.3937 7.46361 16.9572 7.65067 16.8034 8.03526C16.4962 8.80323 15.8642 9.97254 14.9933 10.9358C14.1128 11.9099 13.0911 12.5638 11.9997 12.5638C10.9083 12.5638 9.88666 11.9099 9.00607 10.9358C8.13524 9.97254 7.50326 8.80323 7.19607 8.03526Z" fill="#0083F5"/>
</svg>
