<svg width="300" height="175" viewBox="0 0 300 175" fill="none" xmlns="http://www.w3.org/2000/svg">
<g clip-path="url(#clip0)">
<rect width="300" height="175" fill="url(#paint0_linear)"/>
<path opacity="0.15" d="M22.092 87.0294C-4.5 66 -25 70 -36.908 75.0294C-39.2413 100.696 -42.508 154.829 -36.908 166.029C-29.908 180.029 33.092 186.029 76.092 193.029C110.492 198.629 260.425 204.363 326.092 193.029C333.092 150.029 342.892 15.8294 326.092 15.0294C305.092 14.0294 256.047 38.508 222 95.5079C177.5 170.008 160 69 110.5 57.5C82.1852 50.9218 48.7309 108.096 22.092 87.0294Z" fill="white"/>
<path opacity="0.15" d="M22 99.0294C0.382439 89.7813 -18.5746 98.3627 -32.908 99.0294C-35.2413 124.696 -38.508 178.829 -32.908 190.029C-25.908 204.029 37.092 210.029 80.092 217.029C114.492 222.629 264.425 201.363 330.092 190.029C337.092 147.029 346.892 39.8294 330.092 39.0294C309.092 38.0294 260.047 62.508 226 119.508C181.5 194.008 111 176.008 86 150.008C65.8521 129.054 50 111.008 22 99.0294Z" fill="white"/>
<path d="M279.967 131.339C279.646 131.016 279.316 130.708 278.978 130.413C275.326 127.225 268.5 116.279 265.908 112.181C263.101 107.745 257.229 105.392 251.946 106.592C251.254 106.749 250.58 106.956 249.927 107.207C248.073 107.921 241.714 105.495 240.971 103.652C239.145 99.1197 235.352 95.732 231.068 94.8121C225.848 93.6895 219.771 96.3797 216.288 101.353C215.695 102.199 215.154 103.109 214.669 104.067C213.741 105.903 208.337 106.727 206.574 105.666C202.608 103.28 197.239 103.205 192.896 105.474C188.851 107.586 185.683 111.679 184.422 116.422C183.505 119.872 177.215 123.625 173.648 123.766C173.164 123.785 172.668 123.838 172.161 123.928C168.614 124.556 165.685 126.737 164.124 129.911C162.572 133.066 162.63 136.692 164.283 139.859C167.072 145.208 172.779 148.546 181.728 150.066C187.917 151.117 194.289 151.18 200.452 151.242C201.595 151.254 202.739 151.266 203.879 151.281C204.783 151.295 205.58 151.313 206.317 151.335C211.368 151.492 216.423 151.595 221.342 151.643C223.454 151.663 225.562 151.673 227.665 151.673C235.308 151.673 242.88 151.54 250.246 151.274C252.068 151.208 253.919 151.113 255.711 151.019C258.354 150.882 261.086 150.741 263.77 150.693C268.29 150.616 272.334 150.415 276.01 148.766C279.187 147.34 283.445 144.894 283.729 140.139C283.911 137.131 282.54 133.922 279.967 131.339Z" fill="#74C7E5"/>
<path d="M213.792 123.926C213.409 123.97 213.134 124.318 213.178 124.699C213.315 125.893 212.707 127.183 211.696 127.834C210.687 128.486 209.26 128.51 208.229 127.892C207.198 127.274 206.546 126.006 206.645 124.808C206.677 124.425 206.391 124.087 206.008 124.055C205.62 124.021 205.286 124.31 205.254 124.693C205.239 124.884 205.236 125.075 205.245 125.265C205.299 126.376 205.336 127.642 204.392 128.23C204.283 128.297 204.249 128.44 204.317 128.55C204.36 128.621 204.436 128.659 204.515 128.659C204.557 128.659 204.601 128.647 204.639 128.623C204.759 128.548 204.877 128.467 204.99 128.38C205.487 128.003 206.268 128.047 206.719 128.478C207.026 128.772 207.172 129.24 206.887 129.556C206.728 129.732 206.542 129.885 206.335 130.002C206.224 130.066 206.184 130.207 206.248 130.32C206.29 130.395 206.369 130.437 206.451 130.437C206.49 130.437 206.528 130.427 206.566 130.407C207.365 129.956 208.376 129.579 209.286 129.699C209.495 129.726 209.705 129.74 209.916 129.74C210.808 129.74 211.702 129.495 212.455 129.009C213.917 128.065 214.766 126.271 214.567 124.54C214.523 124.157 214.176 123.882 213.792 123.926Z" fill="#231F20"/>
<path d="M243.339 128.23C242.395 127.642 242.432 126.376 242.486 125.265C242.495 125.076 242.492 124.885 242.477 124.695C242.445 124.312 242.113 124.027 241.724 124.055C241.34 124.087 241.054 124.423 241.086 124.808C241.183 126.006 240.531 127.274 239.502 127.892C238.471 128.51 237.046 128.486 236.035 127.834C235.026 127.183 234.416 125.893 234.553 124.699C234.597 124.316 234.322 123.97 233.939 123.926C233.557 123.882 233.21 124.157 233.166 124.54C232.967 126.269 233.816 128.065 235.278 129.009C236.033 129.495 236.925 129.74 237.817 129.74C238.028 129.74 238.239 129.726 238.447 129.699C239.357 129.579 240.368 129.956 241.167 130.407C241.203 130.427 241.243 130.437 241.282 130.437C241.364 130.437 241.443 130.395 241.485 130.32C241.549 130.209 241.509 130.066 241.398 130.002C241.19 129.885 241.004 129.733 240.844 129.555C240.56 129.24 240.706 128.774 241.013 128.48C241.464 128.05 242.247 128.005 242.744 128.381C242.858 128.467 242.975 128.548 243.096 128.623C243.134 128.647 243.178 128.659 243.22 128.659C243.297 128.659 243.373 128.619 243.418 128.55C243.48 128.442 243.448 128.299 243.339 128.23Z" fill="#231F20"/>
<path d="M218.294 140.453C217.559 139.628 216.264 139.35 215.217 139.795C214.136 140.252 213.458 141.416 213.641 142.503C213.842 143.697 215.004 144.345 216.069 144.456C216.192 144.468 216.312 144.476 216.431 144.476C217.277 144.476 218.014 144.154 218.449 143.58C219.127 142.686 219.059 141.313 218.294 140.453Z" fill="#91D9F2"/>
<path d="M208.825 132.911C207.661 132.217 206.005 132.166 204.694 132.183C203.22 132.203 201.569 132.404 200.214 133.016C199.192 133.477 198.61 134.486 199.113 135.575C199.675 136.795 201.239 137.172 202.447 137.321C204.418 137.564 208.628 137.695 209.679 135.547C210.164 134.552 209.759 133.467 208.825 132.911Z" fill="#57B6DC"/>
<path d="M249.922 132.911C248.757 132.217 247.102 132.166 245.791 132.183C244.317 132.203 242.666 132.404 241.311 133.016C240.289 133.477 239.707 134.486 240.21 135.575C240.772 136.795 242.336 137.172 243.544 137.321C245.515 137.564 249.725 137.695 250.776 135.547C251.259 134.552 250.856 133.467 249.922 132.911Z" fill="#57B6DC"/>
<path d="M168.693 126.847C166.132 127.918 164.459 130.801 164.801 133.555C165.143 136.308 167.47 138.697 170.213 139.108C170.277 139.118 170.341 139.122 170.406 139.122C171.034 139.122 171.576 138.653 171.67 138.033C171.721 137.695 171.636 137.357 171.433 137.081C171.231 136.807 170.933 136.626 170.595 136.577C168.946 136.328 167.547 134.894 167.34 133.239C167.136 131.584 168.141 129.849 169.679 129.207C171.219 128.563 173.158 129.066 174.191 130.376C174.404 130.644 174.708 130.813 175.046 130.852C175.385 130.892 175.719 130.797 175.987 130.586C176.256 130.374 176.424 130.07 176.466 129.732C176.508 129.394 176.411 129.058 176.2 128.79C174.481 126.61 171.253 125.776 168.693 126.847Z" fill="#57B6DC"/>
<path d="M195.469 105.959C192.034 106.553 188.89 109.058 187.263 112.498C185.864 115.456 185.53 119.11 186.323 122.784C186.45 123.368 186.975 123.793 187.573 123.793C187.664 123.793 187.756 123.783 187.843 123.763C188.177 123.692 188.463 123.493 188.648 123.205C188.833 122.917 188.896 122.575 188.823 122.241C188.147 119.114 188.413 116.042 189.574 113.588C190.849 110.89 193.275 108.931 195.9 108.476C198.634 108.005 201.583 109.35 202.761 111.607C202.92 111.911 203.186 112.134 203.512 112.237C203.838 112.341 204.185 112.309 204.487 112.152C205.113 111.826 205.358 111.051 205.03 110.425C203.337 107.175 199.314 105.295 195.469 105.959Z" fill="#57B6DC"/>
<path d="M234.875 101.411C233.84 98.1441 230.277 95.7777 226.59 95.9129C223.375 96.0281 220.184 97.8501 218.05 100.787C216.347 103.131 215.272 106.165 214.857 109.805C214.778 110.507 215.282 111.142 215.986 111.222C216.035 111.228 216.083 111.23 216.131 111.23C216.78 111.23 217.327 110.743 217.4 110.095C217.766 106.9 218.682 104.274 220.122 102.289C221.795 99.984 224.247 98.5554 226.681 98.47C229.262 98.3766 231.736 99.9741 232.435 102.182C232.538 102.507 232.763 102.776 233.067 102.933C233.371 103.09 233.717 103.119 234.04 103.016C234.714 102.803 235.088 102.084 234.875 101.411Z" fill="#57B6DC"/>
<path d="M265.91 112.182C267.894 115.318 268.2 119.339 266.99 122.75C266.541 124.016 267.735 125.995 269.074 126.101C269.442 126.13 269.815 126.03 270.101 125.797C276.993 120.17 281.557 111.625 282.415 102.597C283.385 92.402 280.384 81.7781 274.583 74.8717C268.67 67.8321 260.595 63.5921 250.583 62.2688C244.754 61.4979 237.841 62.4178 232.971 64.6074C228.09 66.8029 223.693 70.8224 220.593 75.9247C217.877 80.3952 216.039 85.7658 215.133 91.8835C215.117 91.9888 215.175 92.0901 215.272 92.1318C215.369 92.1735 215.483 92.1418 215.548 92.0583C217.654 89.2886 221.314 87.2381 225.856 86.2804C230.293 85.3466 234.785 85.6903 238.509 87.25C242.602 88.9627 245.896 92.2669 247.325 96.0877C248.866 100.214 248.205 104.969 245.638 108.2C245.59 108.261 245.574 108.343 245.598 108.416C245.622 108.49 245.681 108.548 245.757 108.569C246.445 108.763 247.174 108.595 247.791 108.234C249.068 107.487 250.467 106.925 251.948 106.588C257.229 105.394 263.103 107.745 265.91 112.182Z" fill="#F5C371"/>
<path d="M252.23 83.3994C252.067 82.5907 251.73 81.8437 251.428 81.2079C251.261 80.8602 250.846 80.7111 250.498 80.878C250.15 81.0449 250.003 81.4602 250.168 81.8079C250.436 82.3682 250.732 83.0219 250.863 83.6736C250.953 84.1226 251.005 84.7803 250.732 85.3664C250.391 86.1036 249.544 86.6162 248.626 86.642C247.766 86.6678 246.83 86.2844 246.069 85.5929C245.783 85.3326 245.342 85.3545 245.084 85.6386C244.823 85.9247 244.845 86.3658 245.129 86.6241C246.121 87.5262 247.361 88.0368 248.549 88.0368C248.586 88.0368 248.626 88.0368 248.664 88.0348C250.098 87.9951 251.438 87.1566 251.998 85.9506C252.338 85.2194 252.417 84.3372 252.23 83.3994Z" fill="#231F20"/>
<path d="M229.101 75.5313C227.034 74.8279 224.632 76.9797 224.952 79.1077C225.079 79.9462 225.546 80.7966 226.186 81.3529C227.39 82.398 229.377 81.7602 230.368 80.727C231.849 79.1832 231.117 76.2188 229.101 75.5313Z" fill="#FFEAA3"/>
<path d="M243.12 79.9185C242.379 78.1859 240.587 77.5899 238.956 78.3846C238.032 78.8357 237.15 79.6682 237.042 80.7391C236.858 82.5909 238.314 84.7963 240.378 84.1307C242.01 83.6022 243.905 81.7504 243.12 79.9185Z" fill="#FFEAA3"/>
<path d="M250.907 66.3698C250.601 66.1592 250.267 65.9884 249.921 65.8672C248.449 65.3506 246.844 65.6466 245.83 66.8646C243.842 69.2568 245.507 73.2942 248.852 72.555C250.235 72.2491 251.892 71.4026 252.349 69.9522C252.8 68.5236 252.053 67.1626 250.907 66.3698Z" fill="#FFEAA3"/>
<path d="M273.756 77.544C273.484 76.7572 272.809 76.1572 272.038 75.879C270.214 75.2194 268.364 76.4214 267.877 78.2315C267.573 79.362 267.923 80.7211 269.041 81.2854C270.377 81.9589 271.956 81.2238 272.92 80.2343C273.641 79.4972 274.116 78.5852 273.756 77.544Z" fill="#FFEAA3"/>
<path d="M275.566 88.5972C272.993 88.5078 270.603 90.4331 270.81 93.1254C270.813 93.1763 270.823 93.2267 270.825 93.2777C270.835 93.5791 270.904 93.887 271.054 94.1983C271.555 95.2394 272.574 96.0521 273.633 96.4673C275.991 97.3972 278.63 96.517 279.025 93.8426C279.393 91.357 278.409 88.6946 275.566 88.5972Z" fill="#FFEAA3"/>
<path d="M260.452 98.3326C259.055 98.1558 257.7 99.3976 257.102 100.56C256.514 101.702 256.871 103.101 257.849 103.908C259.371 105.166 261.702 104.438 262.588 102.928C263.748 101.42 262.665 98.6108 260.452 98.3326Z" fill="#FFEAA3"/>
<path d="M275.555 108.144C274.49 106.451 272.525 106.459 271.022 107.63C269.888 108.514 269.151 110.068 269.699 111.476C270.214 112.802 271.626 113.519 272.993 113.551C275.996 113.62 276.949 110.362 275.555 108.144Z" fill="#FFEAA3"/>
<path d="M261.088 81.9309C258.606 82.0302 256.925 84.2496 255.668 86.1809C255.344 86.5961 255.107 87.069 255.058 87.6194C254.972 88.5572 255.473 89.4294 256.351 89.7831C258.322 90.5778 260.758 88.2691 261.771 86.8186C262.644 85.5689 263.728 81.8256 261.088 81.9309Z" fill="#FFEAA3"/>
<path d="M241.471 65.571C241.257 64.7862 240.267 64.6034 239.697 64.5656C231.046 63.9874 223.218 72.1913 219.608 80.0594C219.018 81.3469 218.596 82.6404 218.36 83.908L218.346 83.9795C218.201 84.7465 218.038 85.6167 217.978 86.3896C217.955 86.6956 218.018 86.9897 218.157 87.2182C218.213 87.3096 218.28 87.391 218.358 87.4566C218.515 87.5917 218.688 87.6593 218.876 87.6593C218.928 87.6593 218.98 87.6533 219.033 87.6434C219.707 87.5142 220.355 86.5844 220.603 86.1115C221.096 85.1717 221.446 84.1524 221.783 83.1689C221.914 82.7874 222.046 82.4059 222.185 82.0284C223.687 77.9513 225.982 74.6272 229.006 72.1496C231.744 69.9064 235.129 68.6209 238.38 67.5658C238.487 67.5301 238.642 67.4903 238.825 67.4426C239.64 67.2281 241.003 66.8664 241.394 66.1909C241.503 65.9962 241.531 65.7876 241.471 65.571Z" fill="#FFF4D1"/>
<path d="M243.967 63.6775C243.619 63.4749 243.208 63.4888 242.84 63.6278C242.638 63.7053 242.467 63.8086 242.354 64.0034C241.911 64.7624 243.001 65.7955 243.754 65.6108C244.122 65.5213 244.422 65.2352 244.511 64.8657C244.629 64.3888 244.376 63.9159 243.967 63.6775Z" fill="#FFF4D1"/>
<path d="M282.499 101.579C282.502 101.521 282.506 101.463 282.51 101.405C282.528 101.123 282.227 101.015 282.131 101.281C280.488 105.74 277.961 109.883 274.722 113.362C273.327 114.86 271.817 116.227 270.24 117.516C270.492 117.31 269.488 114.908 269.347 114.566C268.928 113.551 268.402 112.579 267.782 111.669C266.564 109.883 264.986 108.339 263.164 107.175C259.351 104.737 254.936 104.304 250.679 105.722C249.739 106.035 248.87 106.438 248.066 107.001C247.74 107.23 247.368 107.391 246.973 107.444C246.937 107.449 246.901 107.454 246.865 107.459C246.373 107.527 245.945 107.815 245.636 108.204C245.588 108.265 245.572 108.347 245.596 108.42C245.62 108.494 245.68 108.551 245.755 108.573C246.443 108.767 247.172 108.599 247.789 108.238C249.067 107.491 250.465 106.929 251.946 106.592C257.229 105.394 263.101 107.745 265.908 112.182C268.217 115.831 268.253 120.681 266.27 124.372C266.27 124.373 266.27 124.373 266.27 124.374C266.269 124.375 266.267 124.376 266.267 124.377C266.193 124.511 266.118 124.644 266.041 124.776C266.035 124.784 266.031 124.794 266.025 124.802C265.952 124.925 265.876 125.045 265.799 125.164C265.787 125.182 265.777 125.2 265.765 125.216C265.694 125.325 265.618 125.434 265.541 125.541C265.523 125.565 265.507 125.591 265.489 125.615C265.415 125.718 265.338 125.818 265.26 125.917C265.239 125.945 265.219 125.973 265.199 125.998C265.104 126.117 265.213 126.3 265.362 126.274C266.584 126.055 267.832 126 269.078 126.099C269.443 126.128 269.81 126.029 270.094 125.798C276.988 120.17 281.553 111.624 282.411 102.595C282.442 102.266 282.47 101.938 282.492 101.609C282.492 101.599 282.499 101.589 282.499 101.579Z" fill="#EBCE72"/>
</g>
<defs>
<linearGradient id="paint0_linear" x1="150" y1="16.4873" x2="150" y2="91.1945" gradientUnits="userSpaceOnUse">
<stop stop-color="#7077CD"/>
<stop offset="0.9596" stop-color="#8297C8"/>
</linearGradient>
<clipPath id="clip0">
<rect width="300" height="175" fill="white"/>
</clipPath>
</defs>
</svg>
