<svg width="224" height="448" viewBox="0 0 224 448" fill="none" xmlns="http://www.w3.org/2000/svg">
<line x1="13.9583" y1="-13.9583" x2="209.375" y2="-13.9583" transform="matrix(-1 0 0 1 223.793 28.625)" stroke="#2C98F0" stroke-width="27.9167" stroke-linecap="round"/>
<line x1="13.9583" y1="-13.9583" x2="195.417" y2="-13.9583" transform="matrix(-1 0 0 1 223.793 98.417)" stroke="#2C98F0" stroke-width="27.9167" stroke-linecap="round"/>
<line x1="13.9583" y1="-13.9583" x2="167.5" y2="-13.9583" transform="matrix(-1 0 0 1 223.793 168.208)" stroke="#FF2D55" stroke-width="27.9167" stroke-linecap="round"/>
<line x1="13.9583" y1="-13.9583" x2="153.542" y2="-13.9583" transform="matrix(-1 0 0 1 223.793 238)" stroke="#2C98F0" stroke-width="27.9167" stroke-linecap="round"/>
<line x1="13.9583" y1="-13.9583" x2="125.625" y2="-13.9583" transform="matrix(-1 0 0 1 223.793 307.792)" stroke="#2C98F0" stroke-width="27.9167" stroke-linecap="round"/>
<line x1="13.9583" y1="-13.9583" x2="97.7083" y2="-13.9583" transform="matrix(-1 0 0 1 223.793 377.583)" stroke="#2C98F0" stroke-width="27.9167" stroke-linecap="round"/>
<line x1="13.9583" y1="-13.9583" x2="69.7917" y2="-13.9583" transform="matrix(-1 0 0 1 223.793 447.375)" stroke="#2C98F0" stroke-width="27.9167" stroke-linecap="round"/>
<line x1="13.9583" y1="-13.9583" x2="167.5" y2="-13.9583" transform="matrix(-1 0 0 1 223.793 28.625)" stroke="#2C98F0" stroke-width="27.9167" stroke-linecap="round"/>
<line x1="13.9583" y1="-13.9583" x2="153.542" y2="-13.9583" transform="matrix(-1 0 0 1 223.793 98.417)" stroke="#2C98F0" stroke-width="27.9167" stroke-linecap="round"/>
<line x1="13.9583" y1="-13.9583" x2="139.583" y2="-13.9583" transform="matrix(-1 0 0 1 223.793 168.208)" stroke="#FF2D55" stroke-width="27.9167" stroke-linecap="round"/>
<line x1="13.9583" y1="-13.9583" x2="125.625" y2="-13.9583" transform="matrix(-1 0 0 1 223.793 238)" stroke="#2C98F0" stroke-width="27.9167" stroke-linecap="round"/>
<line x1="13.9583" y1="-13.9583" x2="97.7083" y2="-13.9583" transform="matrix(-1 0 0 1 223.793 307.792)" stroke="#2C98F0" stroke-width="27.9167" stroke-linecap="round"/>
<line x1="13.9583" y1="-13.9583" x2="83.75" y2="-13.9583" transform="matrix(-1 0 0 1 223.793 377.583)" stroke="#2C98F0" stroke-width="27.9167" stroke-linecap="round"/>
<line x1="13.9583" y1="-13.9583" x2="55.8333" y2="-13.9583" transform="matrix(-1 0 0 1 223.793 447.375)" stroke="#2C98F0" stroke-width="27.9167" stroke-linecap="round"/>
<line x1="13.9583" y1="-13.9583" x2="111.667" y2="-13.9583" transform="matrix(-1 0 0 1 223.793 28.625)" stroke="#2C98F0" stroke-width="27.9167" stroke-linecap="round"/>
<line x1="13.9583" y1="-13.9583" x2="111.667" y2="-13.9583" transform="matrix(-1 0 0 1 223.793 98.417)" stroke="#2C98F0" stroke-width="27.9167" stroke-linecap="round"/>
<line x1="13.9583" y1="-13.9583" x2="97.7083" y2="-13.9583" transform="matrix(-1 0 0 1 223.793 168.208)" stroke="#FF2D55" stroke-width="27.9167" stroke-linecap="round"/>
<line x1="13.9583" y1="-13.9583" x2="97.7083" y2="-13.9583" transform="matrix(-1 0 0 1 223.793 238)" stroke="#2C98F0" stroke-width="27.9167" stroke-linecap="round"/>
<line x1="13.9583" y1="-13.9583" x2="69.7917" y2="-13.9583" transform="matrix(-1 0 0 1 223.793 307.792)" stroke="#2C98F0" stroke-width="27.9167" stroke-linecap="round"/>
<line x1="13.9583" y1="-13.9583" x2="55.8333" y2="-13.9583" transform="matrix(-1 0 0 1 223.793 377.583)" stroke="#2C98F0" stroke-width="27.9167" stroke-linecap="round"/>
<line x1="13.9583" y1="-13.9583" x2="27.9167" y2="-13.9583" transform="matrix(-1 0 0 1 223.793 447.375)" stroke="#2C98F0" stroke-width="27.9167" stroke-linecap="round"/>
<line x1="13.9583" y1="-13.9583" x2="41.875" y2="-13.9583" transform="matrix(-1 0 0 1 223.793 28.625)" stroke="#2C98F0" stroke-width="27.9167" stroke-linecap="round"/>
<line x1="13.9583" y1="-13.9583" x2="41.875" y2="-13.9583" transform="matrix(-1 0 0 1 223.793 98.417)" stroke="#2C98F0" stroke-width="27.9167" stroke-linecap="round"/>
<line x1="13.9583" y1="-13.9583" x2="27.9167" y2="-13.9583" transform="matrix(-1 0 0 1 223.793 168.208)" stroke="#FF2D55" stroke-width="27.9167" stroke-linecap="round"/>
<line x1="13.9583" y1="-13.9583" x2="27.9167" y2="-13.9583" transform="matrix(-1 0 0 1 223.793 238)" stroke="#2C98F0" stroke-width="27.9167" stroke-linecap="round"/>
<line x1="13.9583" y1="-13.9583" x2="27.9167" y2="-13.9583" transform="matrix(-1 0 0 1 223.793 307.792)" stroke="#2C98F0" stroke-width="27.9167" stroke-linecap="round"/>
<line x1="13.9583" y1="-13.9583" x2="13.9583" y2="-13.9583" transform="matrix(-1 0 0 1 223.793 377.583)" stroke="#2C98F0" stroke-width="27.9167" stroke-linecap="round"/>
</svg>
