<svg width="25" height="31" viewBox="0 0 25 31" fill="none" xmlns="http://www.w3.org/2000/svg">
<path d="M11.8164 30.2285L11.8164 29.4533L7.38157 29.4533C6.79348 29.4533 6.22948 29.2083 5.81364 28.7722C4.95411 27.8707 4.90784 25.927 5.29722 24.8022L2.94679 24.8022C-0.230794 24.8022 -0.139692 18.6007 2.94679 18.6007L11.8164 18.6007L11.8164 12.3993L2.94679 12.3993C-0.246572 12.3993 -0.237483 6.1978 2.94679 6.1978L5.29722 6.1978C4.70511 4.48733 5.14456 1.5467 7.38157 1.5467L11.8164 1.5467L11.8164 0.771512C11.8164 0.565921 11.8942 0.36875 12.0328 0.223375C12.3168 -0.0744575 12.7942 -0.0744575 13.0781 0.223375C13.2167 0.36875 13.2946 0.565921 13.2946 0.771512L13.2946 1.5467L17.7294 1.5467C19.9653 1.5467 20.4054 4.4886 19.8137 6.1978L22.1642 6.1978C25.3562 6.1978 25.3482 12.3993 22.1642 12.3993L13.2946 12.3993L13.2946 18.6007L22.1642 18.6007C25.2507 18.6007 25.3418 24.8022 22.1642 24.8022L19.8137 24.8022C20.2122 25.9533 20.1397 27.8887 19.2973 28.7722C18.8815 29.2083 18.3175 29.4533 17.7294 29.4533L13.2946 29.4533L13.2946 30.2285C13.2946 30.4341 13.2167 30.6313 13.0781 30.7766C12.7941 31.0745 12.3168 31.0745 12.0328 30.7766C11.8942 30.6313 11.8164 30.4341 11.8164 30.2285ZM17.7294 6.1978C18.9585 6.1978 18.8299 3.09706 17.7294 3.09706L7.38157 3.09706C6.28106 3.09706 6.15246 6.1978 7.38157 6.1978L17.7294 6.1978ZM22.1642 10.8489C23.3933 10.8489 23.2647 7.74817 22.1642 7.74817L2.94679 7.74816C1.84627 7.74816 1.71767 10.8489 2.94679 10.8489L22.1642 10.8489ZM7.38157 23.2518L22.1642 23.2518C23.3933 23.2518 23.2647 20.1511 22.1642 20.1511L2.94679 20.1511C1.84627 20.1511 1.71767 23.2518 2.94679 23.2518L7.38157 23.2518ZM17.7294 27.9029C18.9585 27.9029 18.8299 24.8022 17.7294 24.8022L7.38157 24.8022C6.28105 24.8022 6.15246 27.9029 7.38157 27.9029L17.7294 27.9029Z" fill="#0083F5"/>
</svg>
